<mxfile host="65bd71144e">
    <diagram id="plVbbRoNOBJy3toaYYz6" name="Page-1">
        <mxGraphModel dx="606" dy="512" grid="1" gridSize="10" guides="1" tooltips="1" connect="1" arrows="1" fold="1" page="1" pageScale="1" pageWidth="850" pageHeight="1100" math="0" shadow="0">
            <root>
                <mxCell id="0"/>
                <mxCell id="1" parent="0"/>
                <mxCell id="12" value="http://ics2o.mths.ca" style="swimlane;whiteSpace=wrap;html=1;" parent="1" vertex="1">
                    <mxGeometry x="50" y="50" width="670" height="450" as="geometry"/>
                </mxCell>
                <mxCell id="23" value="" style="shape=image;verticalLabelPosition=bottom;labelBackgroundColor=default;verticalAlign=top;aspect=fixed;imageAspect=0;image=data:image/png,iVBORw0KGgoAAAANSUhEUgAAATYAAACjCAIAAACPAqW6AAAAAXNSR0IArs4c6QAAIABJREFUeAHsvQd8HMX5Pyx6McXUAKE6EIopoRPTS8AQsLExYOOGTYcACTWhd7DBHeOqfro7Sacu9yLJsqwunXS99ybpetm+88/sc7c6N4J/2Il5X91nP6fR3uzM7OzzneeZp20OGvmMzMDIDBzGM5BzGI9tZGgjMzAyA2gEoiNEMDIDh/UMjED0sH48I4MbmYERiI7QwMgMHNYzMALRw/rxjAxuZAZGIDpCAyMzcFjPwAhED+vHMzK4kRkYgegIDYzMwGE9AyMQPawfz8jgRmZgBKIjNDAyA4f1DIxA9LB+PCODG5mBEYiO0MDIDBzWMzAC0cP68YwMbmQGRiA6QgMjM3BYz8AIRA/rxzMyuJEZGIHoCA2MzMBhPQMjED2sH8/I4EZmYASiIzQwMgOH9QyMQPSwfjwjgxuZgRGIjtDAyAwc1jMwAtHD+vGMDG5kBkYgOkIDIzNwWM/ACEQP68czMriRGdgvRJPJJEKIYZjsOeI4Dv5lWRYhBP9CTZqmEULxeFw8n12Tpmm4hGEYnufhp1QqBQVoByoghEiShPPwDS2zLMswDPxEUZQ4MEb4iF1Ho1FoH2rSNC3WJEkyIXygo1QqBT8lEgmxO6gPLcRiMfE8RVEIIbgQ6sC1cO9QDerA7cMdcRwn3pTY1EhhZAYOaAb2C1FohWVZgiA4jhNpMZFIEAQBhMgLHwCVSKAIoWQyGY/HoZqIWJZls6EIEEqlUtlEHIlECIKAvljhk70KcByXSqVE5FAUxXGcCHiEUPav0Ls4qmAwKM4LYDL7QiiL9yiuTTBIcYQMw8B4oH4ikRDHDwVO+GQvQzzPjwBVnPmRwv9hBn4OosASoVFC+HAcJzIlIFZgccBYRFIWxwFnxPPitXuwykQiAT9xHCcCW2xZbG1gYADKPM8DeBBCIgjFaiK7i0QicBKGihACaIXDYVhcANJwEgYgYhIWArEXsUeSJEUkR6NRsVNx2IBVhmEoioKWxd7FyiOFkRn45TOwX4jyPA9kB3QmtghUS5IkiKkMw2QLisB/srHN8/zeKAL4QQvAqPdoPxwOA9IoihLZpgg5kcvBVVBZBAlFUclkEr6hAow5GypQFqVi6IsgCFH2JggCQMswDEEQ0WhUvDyRSPA8L647LMvC7eyx7oh3NFIYmYFfMwM/B1GxXSDcRCIBIMlmOyJrIklSpFo4CVIoXCsSMcBVZESJRCK7DD2SJAl4EK8KhULwk8jGs9cF6DeVSon1RelaxK2Ic7gQpGjxBqGQvbKIP/E8L14rMlURrgih7F8p4cMwjCjVizsCscGRwsgMHNAM7BeiouS5d3OAOpASAXJApsBwoH4kEsmmY5IkCYLgeT4bRQzDiIwRWgB+CLIiAIYgCLEggjkWi8FJhmGGhoYQQgA8kiRh+QDQwi2I44ftKIwqkUjAhaIsCi2kUimv1ws3FYlEsiUIODk0NAS3IO5Coa94PA4VgMNDLyzLiqgWhzFSGJmBA5qB/UIUWhF3iRqNJh6PDwwM2O12kiR1Oh1UiEajDoeDpumBgQGWZYPBIIATsDc4OBgIBCKRCE3Tg4ODLMvyPG8ymQAhQNyRSMRkMon48fl8wDNpmlapVNALwzA0TQPdp1IplUqVSCQGBwcBLQMDA06n0+FwgLwaCATEqyiK8ng8er0eEOh2u5PJ5NDQEGxrBwcHXS7XwMBAMBjkeX5I+MC1MH6TyRSJRMT6fr8ffgV40zTtdDoHBgYMBgOcd7lcsVjMYDCI21QYYTbUoebI98gM/MIZ+DmIikyJYZiZM2dOmDDhggsuePzxSevWrZ848fFgEAufO3e2vPHGm1qt7pprrp048fGHH37kyy+/GhgY5Di+uXnnJZeMGT/+4enTZ6xatfqHHxaUlEjz8wvuuuvuqVOn3XDDjY2NTdFo7Omnp44f//Azz0y/6667KYp+9933li37kWHYWCx+66230TS2+rzzzrufffY5TTOxWPzdd9+bOPHxJ5986k9/un5oKLh585arr75m5sxZt99+x9at22pqapcuXcYwLEXR4XDk3nvvmzBh4owZMz/++BOj0XTMMcc+/fTU6dNnvPrqawaDcerUaU8++dRDD42fOnUay3JTp04zmcwURXs83oceGm8ymc8997w5c+Y++uhjb731dnPzzttvvyMeT9A0M2nSZI/Hq1BU3HbbnydPfuLyy6/o6+svLCz685/HTZ06ddKkSbm5uSBrwDIkMthf+FT+p9V4hPY+/qcjOhSdwy0eipb3bJNHiMsc4sTuWeln/t8vRIG2YCuVSCRomjYYDNOnz0A8iseIu++6nyK5SDjR36f99JMv21q7Pvv0K5ZBRIphGcSxKJWke3tUz819KREnEY94Ds2ft3Db1qY1q/PrajcQKaazo/fVV97oaO95ZtoshkaxaOqH7xevXVMw77sF555zQXdXXzxGXD32T4hHNqvr8YlTHp84JeAPetyB28fdHQrGEI+Ki2T5ecXXXXujy+lDPFL16/71z493Nrd9/NHniEcsg7Zv2zH9mdlQrqyo1WqM4x96FMgvGknKpOXz5y0kCRbxaM6zL/T2qCZOeMJqcdIUH/AHH3rwr37f0PRnZrMMpliK5Jp3tF526ZXvvvMvkmBfeP4Vn3fwmquvHxwIx2OEyWj7+KPPpSVlMmkZQmhwcBBmHFg3QihbvP+Zh3EY/MQjxCLECN+s8A3k9TO0Jf70Cwv/3bvc36Ayt7W/3w/eeYZHlHDQPGL5NFwF14B99rHX9OwXotnqXJqmeZ43Go1z5z7Hc5hkb7n59ufmvvzc3JcfevDRv732D7PJcc3VNzw7+4VHHp6YnyfhWFynqXHXY49OXrTwx4ULlu1q6fzow89V/fqFC5Y9PvHJt/7x/j13/2X1qvzWXV0f/OtTmsL1Cwuk6+o3v/nGO+vXbbn1ljsGByLX/+kWaGfVyrwVP61t2L7TaLA9cP/D2av8g3/5q9czGArGEY9oCpWVVi1csIwi+UScYhk09emZ99370JxnX2xsaGFodPJJp09/5tlxf75bUlxaVCiTyyoE+PGLFy3fvKlhyhPTXE4/TaFEnLrzjvtcTv9FF146Y/qcKU9MW7ki12S0//D9kjdef1vVr5/yxDSzyXHVldcFh2IkwcF48nKL777r/gcffGjGjBlbt24V8QkG271m/vA8wQv4pPeP0r2HvU9C+5mTe7dwiM/scyz/JYjyHKI5RPL4oHnE8HgFFCCEdar7OvaajP1CFBb+bI1Lb2/v1KnTgO3cduudapUhFiX+TfoffvBZZ4fyxRdeI1KYIyUTNOIxI23YvvPRv05S9esbG1pIgvvi82/bWrulJeU/LV+TSjK9Peprr7lRWlI+77uFMNYVP60tLpL/8/2PtRqTslcze9bzd9/1AOLRXXfe/9zcl2dMn/PklGd83qHZs56HXlp3dTU2tNx6yx2wIrhdgeIi+Yb1W7/6ch6sIyaj3eX0x6KE3eb5/XkXW8zOB+5/ODgU4zmUSjJr1xSWlVaxDFq2dOULz7/a1dk359kX21q7EY8heustd7ic/ofHT0A88rgHEnFqXf3mTz/5CvHo1lvumP7Msx73wBWXX5OIUxyLwqFEeVn1mtUFpfIKhNDAwAC4VYB55je1ERW5qMhIM7SMH9Jv4sNlRAAYOeBhr8EDPDBGeB5xh+jgEMshRkBpGp8CF90/C91rmAj9p1cAZ2+iOjo6Zs3CcqPPO3TZpVdFwslEnOrsUM6d81JHe+8Tk6fW123atnVHV2cfRfIkwe1oan37rX8iHkXCScSjL7/4rrpqXUF+yaeffLV5U8P6dVuuuvI6s8kx9qo/yWUVzTvarh57vcXsfPedD9rbehJx6u23/nnxRZc5Hb4pT0xLxCmX0z950tPNO9puvmlcXm7xjqbWm28ap1EbP/7oi+U/rt62dcff33x3/rxFW7c0zZ+3CDBv0FsvvOAPnR1KmVRx7z0POuzes848b8P6rTub2+WyCqvFddutd+5q6fz4oy+OPuoEi9n53bcL5s9btH7dlo8/+uKdt/8VHIpdcP6YLZsba6rXNzXuamvt/uTjLxGP6us25eQcYzTYnnpy+vfzF7e1dr/w/KuLFy0vKpS9+MKrdXX1JSUl3d3dor0nW7N92NM4bJxAxBXX+ww5H/ajFwbIIEQLByPIAuK3eFNwX2kA82kUMQKWDvo3y2JuxXOI4/BagH1fh2H4K7koPI5s8vJ4PBJJiSBP8uvXbaYpnmOR2WSvr9sYCSfkMoWkWD7vuwV1tRsyCLFANZ7DY+zqVPq8g/192jWr8/PzitesznfYPRyLmne0/rhs5epVeRq1gSK5rVsawyEstUbCiU0btzVsb97V0gENNmxv9rgDLqdv6ZKfFi1ctrO5jUgx4VD8x2Ur5323oLqqPjgUNRltLTvbeQ7vHhGPdjTt+vqrecuWrlD2qhGPtm5pLCut/H7+oqJCKccirca44Icly39cteKnNQ3bm2F/++UX327csBU48/p1m5ctXVFUKF25Yq3F7NjRtAv21VWVddEIXndWrli7aOGyEkkpTfEGvWXN6rzCwiKpVNrX1wdiCMdxvym7S7ZuIyOPZSNzb6rK/vWXlPdu4SCewQNgECIRon72AAzTPJZCD+HBIuzLDke2NLIflMJE7DmJ+xV0RXVRtjGTomiKZEGDEhyKAh0DfpIJao8C/MvQeN2gSA6ET5ri4XK4Nh4jAI00xTM01vHAVXAJCNUsg8/TFA/yczxGxKIpsRrU9PuG4Fe8Xgk7YcQjhkbQAlSOhBPxGBEJJ+BfnsOrAFwFlQF+RIohUkwsmgJFl/gTNBsKxhgaK8xSSVpsCvHpjlJJ7G2fvTtgWTaVSoEXB3gd/srvPR/gwf8/GzG7t579S3Z591o/91/2VYeijPtmM1w0jcOf+ZfHUigrAOkQfafx+XMoTW9KxenYc/72C1GSJEXvhWxxNxpJkziwUyB3wCHgAcpA7kDWyQQFjBHInab44FCUpvhEnGToNLsTqZyhsVpYBEYknADww0ngXYhH4VBcRDsoeKGaiCtBIB+E4Q0EQoBk+DcaSYqDFLa1eD9JkRysAlAH/mUZBIOEpcTnxQ1SJAf3xTIIOoVRpccm6G/D4bC4EQVPo1+JTPHyPR/gf+1/kYQO50J6hd97bzksZO4xfHHnKrK7g1vAcragyWUzmiJxc7zXlnRfYsvP7EXBVUgkL4Zh/H6/0WiiKIyfVJJKJtLWFJZBoWCUpjhAbzyWIlJYY4R4BIVEHLNKIkXDJYhHXk8AbCEMjXnj0GCYIrGqKZWkMCPCdp1UMkFSJAu8lySwLYeheZriBNgQFMnCJSSBxwNdAxOmKY5I0dCpOAYYTyyKpVOa4mLRJM/hfgFsDM0zNA99IR7fDtSEq3gODx6GGg5hew9D8/EY5uQCtlma4uByhuFSKRwGJH7AJRBU4iLMfk1BbPm/WtiDrg/jf/eQ1EWV0f4KBxeQe7Ym6HAxp+awvWVfKN1jvMMisPh898tFs735EEIVFRXt7e0dHZ00zSaTxNAQ9lsIh6NwVFfXMgxHEFQshmMvo9F4MIj94CMRHHIZCGA7IfzkdnsJgqqurvX7B+LxJEUxQ0Mhnw/7A5EkHY/jINXW1vZkkojHk6lUOnBUrdZ2dHQZjeb+fjW0E4nEkkmCpnHYaiyWCIUiySSRSpGpFCmEpvIsy8fjSSFcjIQo12SSCAbDsVjC5fIUFUmgr8rKaoRQZWV1IpEiSZok6VgsEY1C1Cvavr0xlSJJEofCIoRCoUg8ngyFcAAN3FpPj1Kj0XV2dgcCg4ODw/FuPM/X1taCyxTP86lUCvyZRIfeWCwG/vfhcDgej0M8rRjo09zcPDQ0BC6TQl/YAcvn89XU1IiRt+IjPLgFhsFTihDq7lKqVTqX02s0WNUqg1plFA6TWmVSq8zqfuFQmYWTBqHCL/w2Ci1AO8Pfqn58vqdbY7N61SqT1eIxGZ2qfmOfUq9Rm3Vaq1ZjUatMUE2rsRgNDr3OptVYdFqr0eAwm1wWs9tsdlusfqttwB9I2B1Bm33I442ZzAGHM6zVeQyGgNUacbmSbnfK4UhYrVGjKeJwUf3qwa4ej1YfttoJozmu0gz1qQb0xmh3r7e3z2+1Ey4Pa7YmtfqwWhvUGSIHcsR0+kRnl1+rj9gcKbsr0dap9w3EsvalWJ+ccWw4QC6a/eAZhqmtrVUqlRqNpr9ftXnzlsrKKpPJXFlZtWNHc0dH54IFC5ubd1ZVVSeTKa/XJ5XK6urqGxoa29raEUKbN2/ZuHHT5s1b8vLyGxoad+1qraysam7eqVBUuFzu9vYOhaJi586W3Nw8u93B82jXrlaDwVhVVV1TU+v1+hBCHR2dDQ2N27c3VFZW1dTUarW6srLyrVu3NTfvDIcjRqOpoaFx06bNSmWfx+N1uz0Gg7GkRLp+/QaZTF5SIgWyq6qq3rWrdcOGjRqNNi8vPxgMDQ4OfffdvEBgYNWq1U1NOxobm/r7Vdu2bVcoKgYGBmOx+Jo1a3t7lcXFknA4sn17g1qt2bhx07Zt26VSmRBEnqipqe3p6a2rq9++vaGurj4UChcVFbW0tOh0um+//XbXrl00TTscjtzc3J07d7a1tUkkEqVSKZVKGxsbd+zYUV9f39bWVlZW1tfXt27dOoVCodfrq6uri4qKLBZLfX19RUVFd3c3wzAul8toNC5YsMDpdPp8vnA4TBCEqC/Ifli/ssxhixQV8Ac//+zrgnxJUaG0QlFbXlajKK9TlNfjo6xeUbYuc9QL52sV5b/8qBNagHaGv+XS6qqKDXJptVxavb5+u6KsXi6trqvZUl5aV1xYLpVU1tVsqa/dWiqrkZVUVVduLCmuqK7cuK5uW3Fh+Yf/+nLy48/cctNdV11109HHnH7EUafnHHl6Ts7onJzRRx9zzvEnXJCTc+axx1545JHn5+Sck5Nz7hE5F5580tjfn/fnS//wwIQJf3/llR/ef3/1a68tfPbZL+fO/Xru3K9nzPh09uwvZs78bO7cr1944btZsz6fNu0jOPnss18e0PH889/Nfe6bF1/+Zs5zH8+e8970WW8UlVSFooSAy2F7TwalB8JFYUWHGGWe51tbW10u19DQUDwe37RpU0FBgdvtbm1thQjvuro64LQQkNXW1kaSpFKp3L59O8dxtbW1bW1tqVSqvr6eYZjm5uaqqiqE0MaNG9evX69QKDZv3ux0Oru6ukDXotFonE5nXV1dfX09eMMqlcre3l6TyeR0Ovv6+hwOR0lJSWNjY09PD9ght27dWlNT093dbTabtVqtXq+vrKy02+0Oh2Pr1q00TRMEUV9fjxCqq6tLJBKtra1AyoWFhSRJ1tTUsCxbXl6+YcOGhoYGkQE2NzeHw+Hu7u66urpt27atW7du48aNBEH09vZ6vd5EItHd3e12u1taWnw+X3Nzs9vtbmhokEgkjY2NbW1t0IXH42lra/P7/Xa7fcOGDalUKjc3t7e3t6WlpaqqCvS9dXV1TU1NVVVVjY2NHMeZTKauri6pVLphwwaTyYQQ0ul0drt948aNeyOQoqh9xujsXfMXnRGEWI5F3327QKM2dnX2OR1+u81n1Dszh8uod2cOl9HgNBocB3Dosy8X28EFg85ltw70dOm1ant3p86gc1lMPp3GYTJ4DDqXXut0OYJ+b6yjTV2YX/7u259OfGzalZffeNUVN02aOP2Tj75bsbxwzWpZWdmWTZu7d7Wa+lX+nl5Pe7uzocH4z/eXS4p3Fhe25Ofu+OnHLd9+XfHuW2ufn/PDM09/ed210266cfb4h95+843VPy1vUpTraqrNlRWG3LVttTUWmbQ/P6+jrtZaX2erUOi3bwtUVRoP5DCUlqorq3QVlSpZaZuisnV1btXm7e1gdBYMHdzuG9UDgaj4OFmWDYVCGzZs2L59e0NDg0qlqq+vVygUarW6vLx8y5YtHR0dtbW1JElWVVUlk8mBgYH29vZoNNrZ2blu3brGxkapVNrU1DQ4OFhbW8tx3NatW+FMYWFhIBCora2VSCRWq3XTpk3QqUql6u/vXy989Ho9QRB+v3/Tpk1KpdLpdBqFj1wu37Rp065du1KplF6vr62tXbduXWtr6/r162tra7VarcFg6O/v7+zsbGlpSSaTDMNs2bKloaEBYN/W1haLxUiSrK+v9/v9tbW1gr/xzs7Ozo0bN8I4EUJtbW2NjY06nS4/P39wcHDbtm2tra1KpbK4uNhisZAk6XQ6e3p6Nm7cGI/HNRqN0WgsKirasGFDX19fVVWVWq0W5PzA8uXLW1paOjs7N23aFIlEJBIJDGzz5s1bt24tKyvr6uratm1bbW2tSqWSy+VSqVStVtfU1GzZssVkMjEMo9PpjEZjc3OzUqk0GAw+n0+M+xGf1EEpCAo8RKS4r76c7/eFtBqzzeo16Bw2iz9zBGyWgcwRsFl8NusvPiw+myX7crGdgaEBoqVZqde63M6w1Rww6j1ed9RqDgQHSVWfdfPGlp9+LJz42DNnnn7RlZff9NILby1dnLth3Q67dTASYrzuqF7r0mtdNuuQUukwmoImc8TjZSyWpFYb1ajjr/9tYamsu0zeVy5XK0p1CrlBITeVy0ylUuPG9f4SiebbbzbMnrXoxhueu/yPT0947JPPP6upr3NLS7Qb1vvqal3LljYXFvTV1bpW/NRaItEc0FFT7aiusRUWd+Xm7aip75XItpRVbhmKEsKulQffBvA6GvZq2P1B7ncvSpJktiI3EonAeg/RzGAvpShqYGAAACBmD0IIgQxGUdTQ0BBEusTjcY7jYG9G0zRJkhCnAilXRIENeKbH40mlUqBToSiKZVlwEhZTHwCvFiNUGYYJBoMwvGAwCJEuMAbRrktRFE3TceGTnasB3PRCoRDP8zC8wcFBt9sNzskwSAADRVHgjeD1euGWIW1SJBKBC+PxOASXejweGBvLshBqs2PHDpgoiICB/SckUoIw12QymUgkKIqCOCGfD4v3wWDQ6XSKZlWSJP1+fzQaBSuO+Bw5jjuYPsACF43H6G++XuB2DeItn9au1zr0WmfmcOm17szhEn6yC3V+ybdDwJJ4+XDBoPMY9V67dchk8Kn77V53rLVFVVG+6aUX3r7hT3dd8cebXnvl/drq7T1dRrPRHxqiA76kwxbUaVz9Smu/0qpRObRqp0bttNqDVkdYpfVq9APKfl+P0m80kS+9NE9R3i+X9RcXKvPX9uav7Ssu0JWW2CrKnGtXKwsLVEWFakmxtrzMIinWfvhBxYTHPrvwgsdnTF+4dMlOmdRQWWGXSQ0F+f1FhepSuelADvPq1b0ymbGwSLl6bXN5RZdEvq1mXXPGdYtnM44T4L6Ldad7ffYLUZA5RTdAEYdJ4RMTPtAahEeDm5vP5wOiB3iLiY7EfgGr4oUA7FgsxjCMyBYgk1gqlUomk3sQH4SPZK8dyWQS8jYAKXMcB9oX6GJoaAhQIV4iqltisVgymUylUgA8lmWj0ai4WPA8D97wkUgErhWHBw0mk0kAtnhrYiYU8QxcS5IkYF4cEqxiqVQqO/0S9CLG4kJlmFU4CWcgYRKE5omaYXElErv+PxcyRu/E/HlLbFav1ew16JwgcOo0zszh0mncwuHSaRw6jf0XHw6dxrXPQ9ljNhv9FlPAYgps2tDyjzc/PufsS2++8d5lS/Kbm3oHA0RwkHLYgmajX6NytLdqTAafQecx6DwWU8BpDzntIYspoNO6evtNfRprv9ahMwXMtqhaO2Qwpp5//mu5vKe8TFNdaa2r9tRV+6vKvWVSV0mRtbbaJ5eb8/L6165VlpQYqqvd1dXusjJrSYnhww+rrr762WuumfPDD41btoQlEv2aNb0lJYYDOYxrVqsqKtw1Na4yhVZRpZTIGiSlGw4aRMXcBUBJQL6iXxsQAWQYEIM5ICuCmFRFJBTRmg9B25CCLJubeb1eqJztfS5eDhxMxE8ymSQIAkYl1hG7YBgmGo0CxYsnoS9QqIoEDYOHZsWakUhE7EhMngAXJhIJWE3ETsF5KB6Px2IxjuOyh8SyrBiwLtbPjmIXT8JQRUO0uBaAsAC/itkt4CqYZ1r4iI9AbPDXFMBiTKT4pUtW2a1+vdah7rf29ZqMeo9weI16OHxGnXDg87ttKX/2X8wq93kEByllj3n5ssJbbrrv6qtu++arpU0N3X5vwueJG3Qedb/dZPAZ9V5gmE57yKDzACc36Dwmg89s9JsMPr3epTc5+rTGfp2lu89ksAyqdQMmS/JfH6xUKJRlpSq5VCst1pcUGUsKLdIiu7TYVligyc1VSqWGmhp3WZll9eruvLy+6mpXcbF22bJdNTXuJUt2jh076/rrn//hh4bKSodcbjqQw1JdFais8Emlxty8jvyinSXyJln5loxTIs+mPXjBdModGBfNSkXJ00IoSiIRR4iHxFlA5SIJAn0DH2MYGkz7cJX4L0I8SaZthkCFwCFFRg2ERVFkxsMInxDRIq4C0Bd0kQW2tKlAaCRttoMBI8QLbeLcYkKqBIYkCdEGCtn6oB0IHIdhRKNRUcIU47PF7kTAiAtKBuE8SaYQ4oRvGAa0h1IpgmXTKU6FyulZZQRMwDfcOHhv8TwGvLhKJpPJzHhwszyP87xlpxpMdzP8Jz0Jmcnc57/DtcUSx2JfLpZBSxavdDkGdRq7wzZkNvr2J6DCJvBAvoeF24y0jM98P2/FCced9cSk2Y3bu4x6r8ngczsjWrXTYgoYdB4sxKoceq0b4K3XujWqNEPWqByqPpuqz6bXuk1Gr9Zg71HpNEZbT7/RZBvoU7t7lN5331taUaGsUGgVZaZyubVUapVJbNJiW0mxWVpirKiwV1Y6ZDKjVGooL7eWlVmKi7UymVGhsK1d21tcrK2r837zzaYHHnj/xhtfLCnRHchhlJbYJcVWicRQUNC9NndHsbTaoh/dAAAgAElEQVRJIttIsul4v8xeFIymBwhRIaUmJoWMOlgMI0Qsy2F3YOzpxkJBeMAiEcAlaSsuLwyGIBPQjkh/Ik3sUSCIJE2TQuXd5PI9+uI4hmVp3JrQLfYrED4cx/I87ppmUhSdpOgUw1BZrfE0TXI8LUZCMgxNUSRgeI+RgEPK7v2mq2Td9R4XcSQVZ7mU4HSWdkPfuzLLMhRFUBTBsKTo6s3xFJSF4cEcpqcULKiC0Jtt6U7fMtbcC7lKOQ4nBBXWEbEay3K4ixQR43gK+1wwhHjvWegdvguGwb7NRIpdvGiFxeTRafDuEUuVWi8+dF5BvHQbdG6DzikcLqEMZ4a/9VqXyxHq7Taq+21mo89pD9qtg0JT3t5uo07jbG9Vm40+qzkw99nXTzrxd19+vrBxe2doiPK6o73dxt5uo0HnNhm8+2x8fyf1Orfe4NHqnFqdw2z1aQ0urd5rMIb+9rdvy8p6yko1ZVhFZJFLrbISs6zEJJOapFLjPo/KSqdCYS8rs0qlxuJiXUGBOje3b+3a3rPOGj9jxsLKSnt1tbO83KJQWEtKdDKZYdWqTqlUr1BYi4s1ubm9Eom2vNxSWeEslTlKiixSiVFRZpDLuiWSJpl8a1bYKJ/ldHSAdlHheYsQBXxiETqbk8CDpWlaYCYiWYBPFTBzlqJTGUdiDB4BMMBAhsli9xLHsCRBJAU+ufsvgm+dkHwMqB8749IUDhPFUMXRBDyDwQpOV1Qm3CENFYEp4UESZCKRjArwwEjgOHaffQFEwRFCHAfPI4bhsIvVvj8cQhTDxik6jiHBY3URQZAUhX2n8CAzsBJWDTyriWSY48nMUDOTJgCYIFKCJIJ7goxlQp8cVgDyeMywU4WBgBdHZlBYqccjhuWoRDIiXE0I+McnEWIpisgsW7AKZK4TqgoQZRYv+ikDUbfJ4DdoffgYhqjLoHMIx74hajb6mpt6HLYhi8mv17pUfVY4rGas0bVbB93O8NLFuTk5o959+7OWZqVGZbeaAxaTv6/X3Ndrtpj8FpO/X2nZHxr3c95j0Pt0Wo9O5zRbfDqDU6v3GIxBAaK9ZXJtmQzjUy61SDE4DcKxb4iWl9vKyqxyuVkqNUok+sJCTUGBOj9flZurfPrpeddcM3vFivaaGldubq9Uqi8qUldXO/Pz+9as6ZbLjRUVtqIidV6eskRiKJU6pEUWmQDRUlmPpHiHTL4NOygKCyQ8UOFZiIvy8LOA0n7VRQKBgj5C5IoMQhxNY188kqRTKVLI/IzrCG3tG6KwZicSMY5jOI6Jx2MCI91zHOL/qVQSRkwQ6WzxgrjLCwnoRaIEvTLeigEXTTvi0YwANpZPhyPRJJUQiBJPiAhRgc3CTXGCxJh2HhLHAAWAKLSf/sYi5n+AKI9Iio6xHDArzNaAL0ELIkQpihAYGiOMEHP1DIvDQxUmAc8qRdEMw2LPrRSNFTn4g++dYSiaHk7JL8jD8CveGgiTkL5BWB8pOiXwbRJ2Hxn+mb4k+0+Gi/5aiFpMfr83brMM9Cstyh6TTuNU99tMBu/QANGvtBQVVByRc9Jzc96wmgMcg1R9Vr837rQHjXqPVu0wGbx266DVHNgPDod59V4VDhpEZbI0gwXlkESih6O83Jqf3/fee/KLLpr07ruyujpPUZFaLjfK5cayMrNcbpRItMXFmpISXXGxpiBffQghCrSQ0RlyeFXGh7CbSrMC/GRZliMIUthPwnos4ll0V8Q0l73Xgk1UNllkl2GftgcNEQSZSXwJ27m0BIgvFIpCKIz4E0h3NMsR0VhQYOMYihn7Ph4MyNuwqdtbLoDx7AOiWKRELMtjOt73h0MI9yuwLFwnmUyBFzHEx2GXYKHXWCySIuIIsQwjSvV8NjPnOOzAmExi9+bdDqEBQVTGVjFxrw5JnkArJuz58WUkSUCb4j1yHH54IBhn1gvhTqAXzEVB0P21EO3q0DlsQz1dBqc96HaGA74EcM719U133/nI4xOm19c2+L1xVZ+1vVVttw72dhv7es1GvcdpD9osA1q1Q6dxOmxDe4HwZ/DpxkL4QeKixcU6wGRJiUEqNcpkJrncLJebCwvVlZX2sjLz4sU7rrxy+iuvrFm/3i+V6ktKdFVVjspKe2GhKi9PKZcbFQqrTGo6tBAFIoRXHghvJ8HpYWmaBXd2mkrvSKFa1nMW129cABLheT6RSMTjccBnRvORdWmmyLJcPI4T9kIdnscKqiwKG8YGTTPYzzabgnF/LEEm4omwuMcT2AhODhqNxkQ6JggCrC+QPRRUVpkhpP8Ky9Nu8IDAV/jeo3LmX5y1gCDjySS+02yQkwSXTFA4mEZsXpA5RZmCphmCIFkWc91sJ364QZLgE3EaJ2ERPjAtYOyFvIoDAwPirIq4zfSF/9I0S1EshA1AHFL6RrInUJARDoqga7MMdLZr3c5wv9JiMfk72jR26+D875Yfd8zp5aXrNSq7zxPTa7GQPDRAWEx+s9HXr7T0Ky1mo89k8Irl/xVEi4q0gNKSEgPgs7TUIhhj9GVlZoXCKpcbS0tN99779pQp3+Tm9q5b5ysu1qxd2wM7UpnMUFKiU5Tb/zsQhT0eFrdoGoeeQA4x/CAJGnZlJIl1j8IHHriIUpy1XfyV43iKosV/M5fs+y/H8eCJClrNPVAE3EAIJWPiMZpI4XhUimJisZiw0RJ5ON6IUlQ6sE7wuY+LnuJpCO27fyxQ8jgQlCNSXDLBCAdNpBgIbcXI2ccHpP2s34TUaol4WiDfg9sLIj1eBRiaF8ODAJNi2A1sYlk6a/Mo9CtoifBrnbKlEnivh/CuKZaiGCJFYweWrChcIZyIAeYqrjjZyxwE9BCpX8tFHbYhZY+ps10b8CW87qhO4xx75S3Tp70Y8CW2b23/t5bIaQ9qVHadxtnXa4bdqU7j1KodsAvVqh1atcNmGfhfQXRvFlpaaikttSgUeJ+J4aewymSG0lLTY499+vDDH65c2QFaotJSk0xmKCpSFxdr5DLzIYJoRujJkIIQCIYokqdIbLlJJdN61GSCBFUqlseGP9ko5TkhkotlcHyZqHcdrruvUnAoAgI1w8C7GMBqkh4Vy+KVgiQY4cBqGIpEqSQugAxJEGkFFcOSPI91p7FY+uUrwWBY3BkmEyQOWBM++1w1RC6KfUDo4UjxbILeffh4hKIZhiSYeIwQuVY0gmP3hLBYJh5PCMIF7B3wSRGQLIMC/rAQoJeAEAiOQbEII5hyMEpjUSKVxJnTsj6g1eNZFos56fMwW/ANC2amF5LA9wLH3ig9WBC1mgOd7Vplj2nAnwS1UElxtdno02mcwCd7u41uZ1irdqj6rFq1o6/XLOp+bZYBvdZl1Hv+h4IuqHllMtMeR0WFvahIXVSkLi+3SKX6vDxlVZXjkUc+mjFj4bffbiovt5SXWwCfmJEeGnWRqPVJswJYhmkKUQQiCTTn2ZfuvOO+e+/5y+RJTz07+3m5TLE7uQCFiASC6Q/SncycMeejDz9LJTE/gfC0LCIbLq6r3/TMtNn/fP8jHAIqvMhQ2FlhKqPptAse4pFBb/n2mx8euP+Rhx+aNO62+2ZMf25d/easkWCtcjIVE+w3AjfEuTODBfnFD49/7O677r/xhlsfHv/Yj8tWQrqGfe4tAaJPPTnzySdmT5k888knZk196tlZM194/rlXX37p9TRQhweevmVYAlxO36KFP45/aMJNN95+5x1/eeC+R6UllXYbTiaK17gUkbmp3Zgnx6Lamo2v/+2dt//xIeIQQ6GONtU/3/vi3rsfhf3b1Kfmej1DQtrB9JIk9I8fGajKIf5GLit/6slnxv357ofHT3z0kac++WieXusEwKv6zO++/cl99/yVE3KpQl6dbIn3YEG0X2lJxpGyxzR92otTJs/u6zVrVHaDzm02+uzWQZBse7uNINlaTH6Dzq1VO4CvgpUVGOn/iovCzlMuNwNERcNMUZGmstIOOluJRFtSoluzprulhbj33rdnz16ycGFjba17/Xq/XG4sLtaUl9kOBhcF0kqTGuATpES87WGYdEITIol0GselY6494fjR4x96bPKkp2fOmHvqKWcef9xJkOkHhMbMt0DeAjQ6O5T33Tv+tNG/u+zSsffc/RcxnQLInMMUjlB7e9ukSZNHn3rW2KtuGP/QBGCkgp2PTSbjHMfwfPp1nUSKmTxp6sknnXnPXeOnTJ715BOzLrn4yiOPOF6t0gOqaRobPATNLS84tRIchz7+6LNjjznx6rHXT3r86UmPP33TjeOOOfrE5597GTgbjAT8ojKckCdJ+ozTfn/pmOtu//OD14y9ddxt94+98saxV93w4gt/Y4CvDs8bnjq8Z+ZRwB969K+TTz7pzD/fdu+zs16eNPGZP13755NOPOuDf33B0DhdC0GAewaHfT+E+SdSXFen6skpM44+atQ5Z1/81JTZ4SA54I9fdMGV55z9h7vueOSpKXMfGf/U+eddfuLxZ/R0ayCtqRCyG8agF/DHMNgJuaCg8PTTzr7i8mvnznnlqSmz7xj30HHHnPHBP7/hGPTOW58ee/To88/745E5J/k8ESSEWgADh29heFhQ+uWCrlZt97gi3Z16s9HncoSc9mBvt1Grdhj1nq2bW/986wNvvv6B1RyAHemB2jkPEJ8HU10klRrLyqxr1vSWl9vy8volEn1JiUEi0ctkxp9+aisvtxQWqlau7CgrM4PRpaLCNmHCZ88884NEos3LU9bVeVau7KhQOA4FRNMuChyXkaV4xDF4RV+zSn70kaNXrywCquJY1KfU3nD9rbfcPA7Mkhl8QqozQCmaNnX2PXeN/+zT78ZedcOkx5+Ga+Fb2NymVUHB4NCHH35w1lln//D9skvHXPOXB4Sc1Fj5ybHCPoxlaY7DjkHJZGpXS0dOznGvvvw2mcIDi4aZ7Vt35eQc9+47H2ChEbMpsCgKiwSGDhazTz3ljCuvuNbvC4NNymhwTJzw5KgTRzsd3vQdCUnaMm86w9BJJokLz7/ikfFPAwsCJwjsGYF3j4LoOwxR0I1hiPb2aHNyjv/ko28Qh0JDJEYCi+4Y92BOzvEUOXxV2moi2EsRj+bOeeXGG8YtWvjTJRdd+dSU2YhDK5YX5OSc+NOPhdC7zxOvVGw64bgzli5eQ5FCtiTcOw/OHgQBxir+4osvOfKIY33eEJnC8nk4yNxz12Njr7ytuLDqxOPPeumFt6Y9/dxxx5y2X4geoEbXbh1Q9VkHAymXI9TTZXA7wy5HSK91FRdWHnfM6WtXywK+hEZlT8ZR4/bOA7dz/rz+du9fD5pGt7LS+eOPbQUF6vJyW2GhRqGw5+erBJTqduxI5Of35eb2btw4UFDQX1PjWrOmOy9PKZMZxo372+uv55eWmior7ZWV9rVrlAcdopyoCGVZKq0h5FEyjpfp5559KyfnFEwJONMsA9T2yMMTc3KOCQ5F07saASEZrGJ1i1plMhnciEOXX3bdXx54FJb/RJzESYaEj7B9wpbA/n6l0+lOxNjfnXXJXx9+AkvI2EMAmwHBuCdgFYvfjQ0tb77+fqmsDmgXcahfaTru2FO++nIeTlYWwTtP8MgT/BzwJTar69VX3vjh+6WIQ0DMPIteeP5vOTnHmk2OtEqGTcv2Al/CrCkUilw65rr77p6EWLwWpP2UOCzw7w1RnKuK42gK7dzRfe7v/rDg+xWIw7sDxOEJfHbWa8cdMzoUTFIkx7K8MEjcnaB/wh12tCvNJidFot+fN2bSxGmIQ0sXr3nlpbcMOhfiUCKG21H2mH531ph53y7jWZzslyAoYf+ZNquyLB2Px15//c3v5y9GHF5YUwk8c+NufWjslbfpNC51vw1xaM7s10adcKbPg3e8ooib5qJM2or7y7moxeTr7tSr+qyAz852bUebpriw8uILx+7c0RvwJTyuiM0y0NGmcTvDZqPvwBnj3jj8mTMHDaIFBeqaGo9CYS8oUBcVaQsLNTU1nqoqV35+PzDJ6monuBatX+/Pze1ds6Z7w4bATz+1jRkzZd68LZWV9tzc3qpK18GDaJo4AaKQOg0rC7HPCi/QNIuenvLysUedjTg0EIiCkpAi0exZL5x6ypkMnX7Y+JFno5RDqQRPk8jvjZ168jl33/mQmHEvzU7TL//DrMDrFULAGHTKSedNmTyTY3HGE1CrIOwoQyZTMQE8KBxKwlYN8PbvqMLXX3vv6KNOWrkiFzcrSJyA/7QPOlZxpXWq4SCVjCObJdDc1PXHS6+96cbbBUEXcz8QrYXLsR6Y59nBweAVf7zpxj/d/7dXPnzxuXe+/nLJ++9+UVWxETLfZ219MZ6xNw/LJmLsgD91ztmXPvjAZKctHA3xfk+yt9t82qkXPDJ+CuTRBusoKLFAkev3BYNDOCvS0GD0d2df8Ohf8QpFJNOrSXAQ88jBQPKVl9456ohTC/MrIiEh3yKevajg9iDmj8f3zzLI740iDtEEkhTWnjH64gcfeALhZ4FxPvnx6ccfO9rnxSnX0hDFCyGeMHCTOCBBt7mpOxJiOto0ZqNP1WclU2jp4twzT79I2WNS99vA18/lCIGbkU7j/K1AtL7eX1fnW768va7Ot3Jl12OPfV5SYvj007p7733npptefOONAoXCKpXqq6ud1dXO1au7ysrMBQX9dXWeZctajjrqZolEK5Xqa6o9hwiikIMUc7BkgsSEyyGGRDOmvnnqSRd7XHj1FY+ZM57LyTnW5x1Kc1HY3ogoBV0ih5z24OWXXf/kE7N4/LoXvL8V0udhhwTB5gm7KZYgyIAvfvroCyc+Ni2V5CgSWxQwybFpr1f8r5DUy++NIQ4FB+hNG1quu2bcETmj3nvnk1iUxIkCBVIDoIKqFlKWJeKYrB22wZyck47IOenM0y+8+MIrO9r6iZQQYJBx0BMEXXDrZWOxxK0333/zDQ/+8Q+3jLno+uuuueOkE3931hkXrV5ZlPY6TC9tePwcT2NHecH9sTCv8qLzr8nJOfXE48497uizRx1/7lVX3NrXa4btH86fFk8ghH0VYBEU55Nj0agTRz88fmIywaSSXCRMIA5NmvhMTs4JOTknXDrm2jdf/whkB1CSCyE4LEUnCDImLGEoEsZZiBGHmpt6p0yam5Nz8rVX396wrSs4SCEObwreeeujnJzjfF6c1hSWVEETDh4mOGzmgCBqtw6A6tVpDyp7TG++/sFNN9wNCqEBf1KvdSl7THqtS6dx6rWu35Cgu3JlV0WFQyLRL1rU/MQT315xxYyyMusFF0wqK7Pk5Slvv/31Vas6S0tNa9f2yGQGsL5UVTlKSnR5ecrXXssdO3bmunW+g2R0EfEmsB9B0MUQFdyv+VSSwtIdi+IR9MxTbx6dc3Y0jB9hKJgEK8LcOa8ce8xJXs/g/iAKLvFuZ+Tc3136xKSZQwNpZwNw2QMzSTA4hGkK+47S0TBz3u8uv//ex1JJzNkEAOP84vFESBhbJjUuh/p7be+9/VVOzsnjbnuwUrExOIiT+qVpXeChQngXNkKEglE4n4izqj7r8mWFPy4tePftz6664qZHH3kSJAKa4oUVAZt5BK96PB6CwGQdGkS8EOGXiKLOdt0fLrnm6qtuokgs62YcdNIQZRg2lUAOa+TasXfecN293329Mm9NZal004vPvTvmouv++vBTfm8kHkszwEwgDkokUni8Qt7DWDQ16sRTn3pyelohhE/StTWbVyzP//brRXeMe/CSC68tk23Ai6aQoBivRyxBUnFhisLYjUGQw4sKFFddfusROae+9/aX0bCwcGSWy8cnTj3m6FE44ajAPAX/zfRugmGoA4Woqs/S2a7Va11Oe/DrLxdPfnymxeQ36j0Wk3/njl6bZcDtDOs0TqPe06+0/Ia4aHW1Wyo1VlW5Skst+fmqm29+BXyMfvqp/auv1o8dO1MmM4A7UV6esqCgf/16/8qVHYWFqpoaV1GR+qabXnzttdyD5LqwH4gyLIGXecEkiFjEUeiZp/5+dM45fm9CNBJyLJrw2JOnnHzmQCC8P4hivsHgzdhFF4x9asoc2AeSBGZcIO8JaEpzUZzpgUDnnn35gw9MEpWWQggIzSMIBMGpa/2+8Pat7WMu+lNOzqlLF+VbTIG03Cvcy0AgCM4Jw6GtODEnPzQYC/iw+McJbgCxCP/JR/OOOeoUvdZOpLBALY5H8PjhWI7CxqFMhA9LIUIQFCdNnHHeOX/YH0T/zan+8cbnJx533sZ1bak4SmEnP3x88uH3p4++oLZ6M0ngVKPJZAqWEzGgT2D+XCpJjbnkjw+PfwwygPt9QchUEhzC6YuxiHHqxXNmvYl3ucIagYUFHCJDJ1ORFIHzLXo9A8/NffXkUec8cO/k1p1axGJpGbbEqQQuvPjC60dgwWcA1kfBqRPc6xmGFXw8DlCj67QHLSb/l58vvGPcQ329ZohcM+jc6n6bwzZktw6q+21atQPiWn4rgu7y5e0lJYbSUsuyZa319f477vh7cbFu8+bQDz80vPFGwS23vLxiRfuiRU3V1c6iIrVCYS0tNUEhP79PKtXn5vaeeeaDhQWagyfoCkABVpbJ3p2O/8AvIxR4yOwZfz9j9KUDPqyihINIoYkTp51wwumxGP1vq8ZuCYYFysQOoRyKR/lEDI25+Op7736EpTGVgEGfobFjA0lid3CapqJRbIGIhKjRp5w/ZfJMlhGyxWMJEswnXDQawWk7eTQYiF90wVWXXnJ947YeUGVxQqSLsNPD2XcFfzcGnOkw6dN8f582J+fY775ZzNJppCEOLVuSd9QRJzc3dcJ4MKdNf3iWpUPhQY1Gd9H5V1eUNgYH0khLxtDjE2Ycf+xpgBBI/ylchC/BRlEO/e2VD47KOc1uCQM4ySS+dl1dU07OKEXZuvTaxGNfXwAJJOMUZH4U8A8df9xJz819mWXQq6/8/fTTzvV6QgAwIonIFLp0zJ/uvP3hZDyd1F+Q5HlBxIUk/Oi9dz/IyTlu/nfLBgNYSMa6NtBaYU8pvCxMfXrmMUcfD4lReR5vuWEjLajYDhii6n6r2xn+ft5Pf771gQF/Ehgm+B6Yjb6uDp1O43Q5Qqo+a7/S8hsyutTWeteuVRYVacvLbf92/bvqqlkymWncuDdKSvSNjfHbb39j/vxtZWWWkhJ9aalZItFJJLrqaldeXp+gT+pbvz4wa9aSR//6WanMLi02yyR6RZm+VNYtKW7aPdIFmFMGUVkkmCHFPV+7BCwVXyCGQdE0G48RDI3W1W/JyTnhmamvatWBcBA5HfFVq0qPPe6sqdNewGnMBBrOhJNj91NaEA+xKMihZIy+4Lwx9971F4xtkW/vq5BKMqNOPP3pp2ZmV0vrG/FrSPECsWXTztGn/P6Tj+brNA6txuKw+zzuAYPe2t3VJ3hKYFF8j1TXiTh5/u8vvvKKP/V0GUODbMCXUvfbr7ri5lNOOsflGBxOTg8aZKwnIykaZ9Y98fjf3XLjeGW3I+ClfO5UbVXDxRdefd896feUpgcpTifC6rEVy4uOPfq01155z2EbGvAno2FWq7aPf3Dyicef0dGmwutdBi2gtQYzLOQQp0j+uGNPnjwJa3RXr5QcmXPynNmvR4JcLIz0Gt/3363MyTnxi8/ng7IHeoeU3+BykErS5//+kltvubO9TanT2vQ6m0ZtMOjNba2dMMZEIvXiiy8feeRRkUgUcspkPw/Bm3Dfe1GzYcCg9dktQa87JqhnQ8HBpLJH7/fGli7OvfyyG8AiatC5AaWHmFvuT6l7MDW6tbXeigrHokXN5eW2SZO+LihQv/9++dixs2+88aXp0xctW9aqUNhLSgyFhZqKCkdxsa6qyrV2rbKiwlFaaqmocBQWasZc8tQP85sKclVSiUZRrlGU9+TlbcrNq6GZNA6EyRfxCdjIIiah+DPBaHiNz04d4vf7//XPT0adcN4Jx10w+pQ/nDzqopycU6+59o6eXnOCEGI0M/yXxq+84SnMfXmSwqpUt9M7+pTTr7/uxpSQw54VktBng1Asu12+k0adevu4u4NDeAOJA98EqVisgDhUXbkpJ+fEY446ddQJZxyRc+yJJ5x8RM7RRx157GOPPh4cSjsDAEqBcCELvqRYNurE03JyRh19xGnnnH3picefPeqEs7/47Huwc6bbz0CUYSghgIv5+MN5Z5/xx6OPOPOYI888ZdT5Jxx39piLr9m4vml4PMO8V5hRrJEKzJz+wgW/v+yUk84+7dRzzz7zwlEnnHH2mRf+/Y1/imabfzsSJGIsXnEyH/ASsVndZ591/v33/RVxyGLyT5/28kknnHfCseecdML5o0++OCfnlEcfmdK8ow16H957C4sdvDxy1ImjR5961gnHn3La6LNzco4+9dTRxxxzTE5OjsFggFifCRMmjBo1au80ZZDjYn970e4Ok9kwoNd4+noteq1Lo7K1tvRGQqRcWnvO2X8A31qj3mOzDKj7bZ3t2t86RPPzVdXVbrncDFGjS5fuqqhwgOibn68CWIJJJje3D7aplZVOiURfXe2WSPTFxbrKSucbrxfdeP1LWzYGy0v1VZW68rKutWvXS0o2ZMWLHjAXzdBL5m92Hh2cb9IfrK/ZvvD7tQvmr161oqSosFKvd2F/7rQYmN64MYin8Y4Pv7kNt8AjlmZXr1xdV1MHtEXsHWOVxVHz8goU5fjNn7C/hVQdsDWFrCmhYKq8tG59/faa6o0yaXld3boNGzbV1tZv3LiZJNOe/Zk7wH9TKRISzG/d0rRmVcmC71flrildsmjt1s27sGVCiAjPhijH4YBMhiVpmkklUEeroSi/+vt5K5ctya+p2gqGymGIDvckCK7CUhgKpupqtyxZvGrpktVfffnDj8vWbtvawgs6nmQCq8Eyqw9EruALIW0Kz6HctUXr120Dv/lUAinKNv4wb9XSRQXLl0rK5BvcTqyJhTesUiRWFoCULjjo4/PSkvLqqrFHJmsAACAASURBVHWK8hpJcalcpqiqqpbL5TIZzs0Nac1KS0sLCwsTiYRgNB6OHPp5iNrMQQjpVvfblT0mmyVgNrq3bGo+47QLujp0Bp1b2WPyeWLKHpNB5w4NUb91iALqpFJjRYUjL6+/utpdUKBWKOxVVS7IxlBaaoGAb6nUKCIZNEwSiT4vr7+y0lkqt1w6ZupPy9rK5LoSSXdlRa9M1lRZ1XQwuaiocUkHmgiYZwmUirOwHRX83YKJJJlZDeDVZBhWQuokvM9hBedaFodfY2sMRRC7G09FEw0mPXA5yNATDs7C5QyAM5tYlEykXfnxK5jCUUAgDpRjOHhXhUBwmPTBxZ8gKPzeBz69N0u74ghbtWEpV+CHQvAdixOvcBROAcMimsRuOuAMAHcNyhs8quEPTAA2wBKpNAhh2GkVrnAL8BNNZYkGuAWOJAl4TRO+VwHk8RgdjzI8i/efWDbOeC9Am+KrwbOjGkQDb8Y/BKuOsQqIxLwaEruJyQQhHC8Tjp++DSEAfd+Crk7tsVtCOg3OHiR4/Omamzovv+y6Mnm9ut8GHraqPisg89DvOQ+5oAvIlMvNsCOVSo2rVnWvXt2zYkVnUZEWfHfLyqzV1e7KSqdUaiwttfxbsi0q0paUGORys0SiLyhQl5Va3/6H7K7b/14q0xYVdpTKO8rLWyqrmkhsKADyyeBGhNMwRaVL+xV0AZPwviBI7YUDnVL4XUNMisRxyxRNE2QabLg7EKmxblA48GsbIQ0HQmw4NMix2HpDpOJQyOK7aechOBMKDfE8m4lF5pPJJLgfgFUdq1gE6Zdj068zFDQu2G4hpGXYjSdAoBxoZdK8NJIE1QtDYeAl41woiJk8xO6AkVBwXBRD2PFERsPC1kGw5Q4rlobxCfcOdyHE0ApoTMQJkmBoCuuKaQqrakXbTyyapCkMY2H5SIsgQjYmBtZE+BXQiAUHYWrBWygSHn5xI8gX4DcCb44TdVHwLySLoSgKEhQCICmKSiQSsIXJhigEBu9P0NWq3BbjoLLbolU7+5UWrzvyyPjJ773zSTzKgQq3t9s44E8KDHagu1P/W+eiCoW9qEgrkehzc/tqa70ymamy0llYqJFI9BUVDvi1sFBTXm5TKOwQWQrfubl9MpkJEF5YoJFLzZeNeXr5sh011Ybiop0SyfYS6caDI+hmgMGI6y4GKkUglkR0AvEk4kmWiOEtJ51kSWyX2+ulq4KXkpA1i+fSubPAwZDLSqsFZ/b4FrGdTMYzWUIwgxWcb7HPE01xmI5xWm0xVDW96jAMtq9mx5fFYvG0AZNHyQQnslDAgPBiNWxTzfhFZVg2RgaOF00mMGOBpSF9yfBSl/3meaz4zjaiiLVAFgBTUDSKTSOCZwVeDTgev4g2c/vYowvU0ZFIjMNefoLriOASnK1kAigmE1Q0gj0Ks18kCSOElzjiNYLO+FrjNCvDrz/NBieMB5yq9wdRuyVk1Pl7u81aNXZC+PLzBc/NeY1j0M4dPep+W2iIslkG2napPK6I1RywWwd/6xCVy83l5bY1a3rlcjMWWUstNTUeSGIE8u3atcrc3D653KxQ2KVSY36+qqzMWlHhAIfBigpHebmtQuEoLtTNmbVs5vT56+otZaWdCsWuwqL6gwNReGzAP8WkB5jR8UnEx+i4D/ExhOKIj7PEEEJJhFLCQSBE7PmaZJ5kmSRCVDIR4tgUje3sP/8SZWzoiyfCKSJGYPCn2azg2T/MvMQRplKpSCQCNAep2SGlLUJoaGgIxDyWZePxOJaHeax0hV0uiLggWOJNnYDSTLMAVIxMwAD44iST2I8/qw6YTbNf3g4iTBrnQvAq9kBOJhNQFuyQPEGk4nHsd8sjmqTiPE5KRnC8IJmQOCMEdAHCucDn0w6M8G5VeK8poBHuIhZNcdhzC6c4EkX3JN5vplMcZS+14gvaoBcA589DtLfLYjUN6TQ4O2bDto7fn3uZxeTp6dLardj/FvIn+L1xZY+pr9d86F0UDrmgC7JrXl6/TGaC9EVSqbGwUAPa2ooKB8i6kIUMp8nN7Ssrs1ZWOsvKrBAWU1nprKp05a3tz1ujvPH6Z4sKOxTl3TU1nVLZpoMj6GaoEP8dhihmhjGe8Or7Gs2aFouuNRGyIXqIJQYwXFFib5TyfIpl4wgR8fiA02kQ3iYRoumogGTAc/Y3iRAZjQ0wbNLtsfr8DsFvhuERnYVVjAHIbTs8MGG4gENx5KDrGo5yhh8E7IhELL72F7vl4FSX2UsALoPlUzwN/DAcDgnSp2hpEl8ILViQBcGUIJIkmQKrIwTrYECCmTK9KeAgwxhBxhCihTyA+PJYLCw0zmcWF46iMgnQwJE4DX9s781szrH8D2oA8NkEVTaI+qCZF6cFEjWI/2bjU6i5772oUefv7jC5HVF1v/3Yo0/TqGz9SqPd6reYfGAFNRm8GpVdq3ZYzYH/Dwi6UqkxL68fAlwAkAqFvbzcBsiEtJ0FBeriYh0olvLzVUKomqmuzvdvV0FQ82LXBZmlSuG4+ca5SxZvKizYUVy8rax8WyyeVsYLG9L/q9FFfIS7F2jEBt3mNnX35khA19VSHxsyI3YIcWE66RcgmkSIMOp6OTqOEMlQMYQIiopQVESl6mhq2ggohZMIERyXAKxCgaIiCJEcnwqGvDuat7Ts2s7xae82QRQUd63ZnGr3Af7H/zL0nRZZ4d//eFW6gnjxXjpssAQL6Ygy2/Lsqd9fGZiwKOgCwtPbWuH5Hdj4ful97L8eFox5FByKLlzw44A/plXb+3otJoPfYQ0bdX6LaWDCo88sWrB6wJ8wGVwmg8ug23eSzp8RdF2OkEHnhsAXh23Iag4AvCF/J3Bgi8kP3g4/086+fjpodlExhvvXFGRSk1xqzl/b9/GHZXfe8cL2bTaFYpdMvjkSxVpQgRuIShygkGwOkX5I+1UX7ech0kzS29e+jk06EQoOedRm7S6EwogJIhRDKEElB0MDzpYdmyNBryDukggRPJ/k+WQ47G1p2RqJ+ET+SVERvb63o6Opo6NJr+8V8AlCMkmQEaNJ1atsE7yFiYz33z4huo+72s/gM6dFoB3YpXCZCDZxMGIBHDfECr+wkM6dK8rzmYJ4+X8VpTgplCDbL12y0mLyaFQ2s9FvNQ3qNV6HNbxqhfThh560WweVPUaDztHZrjpQiDpsQ1s3t4677S85OaN+d9aYb79e6rQHy0vXP/jApB+X5kN6TvDLt1sHD3xPe9hBtKTYoCi1LlvS+MfLJpSXdZWV7ayq3kEIHnqHCqJsyt+0WU5EbIgKWPVtLQ3VCEURHaSTgUTEYzH2dbU3lcsLtKquaDhAkzGOw3wVmGRj44ZUKpgRhrEAHAjYvV6L12sJBOwgD/PCVpZmEgOD7u6eVoTVwiKTyWYvgLdstP3Ccgaov/RvdrMibPZZEHztMkLsAfLSfTYonswewy8d9/+5HkXiRIE/LlutVVs1KpvFFNCqXCqlo6vdePSRp2lUDp8npu639iuNXnfoQCHqcoSmTJ792SffG/We5qae4489o7624b57Hrtj3EPzv1tusww47UFIXKRR2Q88Muawg2hxoa5K4ZBKVFePnfLjsnUSyfaKysaDrC7a/UkzPBXUKZu89j7EhhymHp9Ti+gwlQiAxohKhcJBj07TE48Ogq8RzxMME6fpGM+ntm6tD4W8AmjxnpNlExaLpq+vva+v3WLRsGwCIZJHJMulkqlIMOTf2dJA0cksERdIdjfeB16mmTS/kLAr7dO7L5AAre9+T//hv2x4HA7l/zDcX/9zLJpMJqhFC5fbLD6NCr8uRdVnt1tCU598ceH3a4x6r5CzL+BxBdX95gOFqEHn3rBuR2+30aj3GHTuo488tbWlfzCQ+vsbHy5euEbVZ9VrXZC1SKOyH3gI+GEH0ZJiQ3GBpkyumz3r27ff+rGwcMtB9i7a63mziCfIqK9j5+bOXVsbN9cGA3aGCCFEsMLmE3EEzxGRSIBhkgxL0BhgNElEsbzKJPuUHcEhLzbYIIqhEwhRPM4KjbW7UGCYJMeTLEeSVCKZiir7ugSIAncS4bHboA4Qotmb2H03uFvr/7/8hySYSDgxf97igC+q6sOGULcjWlxQc/cdj5kM/kQMdbZrtWq7ut/scgweKEQhS73VHCgurDzqiFN+mL/Cbh0MB+nXXnnv6y8Xa1R2YJ7qfpte6/qfZwD8NRtRrEaSmkpllsI8lVyqWbJ40333PieRbJfJNx9SLsqR8bBgEY3GQ35sFMUHSQs6ySwXXazh5LGWEptPqLTVlE4mwmKZx68DomkqwXMkz5E0lcCXcBCnmt7dhSMQR8oJyez3DRfhjSz4VRR7HPtioaLcmF0AoO678V90VkS6WPhFlwmVxEvEwi+/9tDVxNZj6vv5SwCibmdEo3Je+cdbt2xs93kS6n67kDbeHQ1TPV3aA4Wo2xnu7tQ/Mv7JJybN2tHY7bANJWI44cvfXn1/0YLVfm9co8IOhuAO0d6q3pdOaH8Wl4OcXuxX4lOEaEWZrUyukxR3XXThPcXF22rrWhjBN+8Q7UV5lkzxNIF4BucX4VnBoY5laHhFQjrQBRyMaMHQhxCzh6MCyxDYhxe/nowhiThDpxg6ReK3J2DfXh5HT2MICfaJNOWmsygBUYrULNwiRiZP731klC6iLmefBVFy3k14/g/Enz2AQ13+D0M5JD9DNvMli1e4nUNGvdtpD73z1ufv/OMLi3HQbAgY9V6Lye+0D21Y12A2ug8Uoj5P7IXn/v7FZwus5oCqz+p1R7s79T5P7K2/fzz/u+UeV0TVZ9VpnH5v3OUIHbjx5rATdGUlpppKV6XCJJP2Xnft48uWVVRV76BoTOKHCKI4EoQmCBr8bFkWu+TgvgSPOYTRIqTSYTnsJpgQ3qdCI45k6WQiFgQ2m8Jvc6Ax+0X4pzTvhQI+yfI8QzOJYMgrvGUMXtcpptIWrR1pXz+eo3mO4PkEz8d5FBMKhODMBPATXQsA+QBFUdMtKnh2g2g27vYNguwah668774P7VmGYeOxVCJO/rR8rcMWcNgG1f32Y446Xav6f+29B3hc2X0fype85L1PSRy/5LMTx5EdO4psRZIty7EUSbaixNLKkeRdldWql+3sBAvA3ped3KW4hbvsRB90YNA7QRSilyl3ei+YXm8vJ+9/zsxgSHBXlMTVEuDgu9/gzJ07d+4pv/Pv/79HO++amTTbLEGvO67XOgx6x68B0f+/jvAPv//i7/7OH/7hH3z0T/74E2vW/Iv+3nGHLbRhXcnO4iMkoa7J4CXpsH9FEoqpq8FH6d0U5bJa/ZTBozf4jabYxo2nalRzNdUUroxmr6q0V1bYKu+qj2aprIQiaJVVVGWVrrJKV1FF4UNfUa0vr9aXVxnKq6wVlTZ8mRkXVnuQVyh8WK0y1TeYq2sWnn5m54HDl66XqjkJ3HFIwklMS/BiJgtp2fT+qkaXZTfInHi3dSph0wtDJxa9LmMk4ADnJMTIYP9ksKNS9q2YxB9xPKQO4OIJp95wm+W9oC4GYZVgCRwnwMaDYgqKyzKrSLzIppGSdtjGx0ZrDYZehBY5JgiRqhmpU8JbAHY/JM+YI5ywsxAAwwBlOgAWh5xOFjYafOLder06z8eiSYFXLvzibZvFZzX7v/XUTy6+Wf6rFi/8ddAFNUt/w8NtMroMlMNAOa2WgIHyU/qQ0ZjauOFsUyNVU02V3aRu3jBVlDtUKn9NTaCmxltarr1+c+7qVeraNePNMm151VxFzWR5zcTVsvE6tam0ZvZyxZ2LpSOXK+aqmoLXK9xV1c7qausDHlUqS0WtoaKBKq3VXCodK95/5Ucv7FO1DBJvWBxnggkV+HNm1/hdxAIW2MOC6LstVgk0SVzUadWMj/QYdZNITCBEJ6MeiYtCW0oKTBgpaSSnkJyS+YQsMoKQsNonu/vK3L4pGYUQYjg2zXM0y0YZzsMKDkF2S0pQltOKCEGpTMw7P93KszqrpfPOmEpkgzKEh2CogReHgLcJHBmTPxAwFsRxD7I05CCaI74SIpEAGXL9bj1cfedJvotzZ1+3WXz9vXf+/KP/zaDzrhCIukxGp4GyG/RQrdRALVL6iMlAb9xwFqioSlejMteonLU13hqVr7LCW1Zmu35z/sq1uatXrFWVgeaWYJPaUaaaeutK/43KuepG05WKqatVE2+Xj1Q2mUtrApdveCoqHQ9MQs0VVcYrpTPXq+dLa7U3VbMHT6q++s31ZXW9KYkYEgUZTIw4l12OO/ytQ1RGMtBMJhlYmBkx6qaAeMppng4DzRST0aBzdnIoEnCwqSCxl7J0QoSiJ67h0UaHaxIIpsKQeDa/3z6/MDg+2arVDwSCBlFMEZ83Nr4YC2qYtMZoaPO4R0U2hEQxQ3eBDyf+/csgCqjMfpTl10nsa3a4HlOIJhN0OsVdvVIWCdFf/cq3Xj17yWmPrhCIZqmo3mmzBDFEQyZjcuOGU7U1U7U1C7UqfVUlVVaqv35Ve+2q7vp1fV2ds6E+UK+iq8vTN655r12zlFeYa+ocVSq3qtZXVmmqqjWVVS20dQYrKgKlN/3VVc7qavMDH6aqaqpaBcxzeeX86VfbPv6pp2qbRgjpFJEkYysjEFDC0mUl1Px9//2mojICswocdrPGbtbkXIsEJpqK+XXz42XXLy7MjLpseomLI4kWeQaLqQmtftDrn8eMLgSa0qnUot9lsU7bnZORmFEQQ7LESjwP3VTYgGfmzmiVxdyFkB+JcfBOJ+qhDKnMMrr5VBToLI8JLASD3kNFcbLRxxGiUMwCZ347feo8zhH1Mas54LLHVgxEDW6D3mnQuzBE/QZ90GSMb9p4vLJ8qLpyTFU1XVUxU35zuvTGdEXZfFWlvqHeXlXuLL0SqriRbqjhmhvZ+vpwVaWnsmyx/Ka3rsZTU22sqZ5vqbdU3bCpbrqrSs2VZdQDHlVl+s4Wl7re0lBtqKnQXHyj/1//60/XNYxCuCbGpYx4BXFYUZqVrz4AKop4iU/wTHRhdsxsmAOIKowigmM9Qmw6EZgYG+CZKFIYfAbQyHNpQYxMTHU6XDPYO1+EqvAKikWDBuPkgnbQ5piKJ9xYM4zoaAIJzNhQg9c1gpALyR6QdVkhA1HYlog4ijcqwsUuiangn5iVdbPBaJmxUnC8Kw7lzt/TVns7o/5T0Kvn3lj38tYzp950OaI2c2jlQNRj0LswRANGymfU+83GyOaNh5sbRlsax9VNUy2N043103U1EzXV49WVE/W1muoKU9lV741LwRtXgjeu+q5ftV+7bK247i+/6mqpddWUzTRVjVVf7W+4Pt1SZlRd11dfpx7wUF3X1l+bqb860XRzrrVaV18286H/+8/VTZOQiy+zzHKpLbHSYxk+fwuyqKxIrMDGZSHldZn9HitSWFlIKWJaYOPAAwspOAkbCfY3EhgEvkUpRUnaHTOYm43JkiDykP1AFDhRBF0RPiBhJpfmkYR8Nstgt2phtnVspMpkuIWEVMabPePykNUJ5SmCMGMrYHwyGUkVy6MQMpqRS2UFdjiS83q14/Lu/gUDEYYWjhw++Xv/9sN2a8DrTsxOW1YIRD0mg5cUVrNZAlj55LUYA1s27m+u76+t6qq82VZd1tlQO6BuGlY3DTc33G5qGGmsm22scTWowg01kca6SGP9YnN9oKUu0lbrb6yY66y701PfrS6tvV1/a7hholM13q6aesCjs3piuGGmr2K0p2K8q3KyqXTkn6/5w+aaIYnH9ABQKuJlhlPOkZV391z8FiCqsHQC87rYhUikZSGNILX8UryogkNJM2cUSWAFEWKvaITiCoqyLE7VgxlUgCof5fhFUQopSgonBQVxko5EMGgX6ZQeoZDCp/gUezcVJWxFlpcAKipiZNLZALqlaMwsSh9TiDIMi+tWxD//uS/t3X3U5QjPzVhMlH+lQNQIRhePQe+2WRaxzdZtNXmLNu06ffz80QMnj+w7fvqVc2+8evEXZ14/uOvQprUbn3jiy1/84hNf/NsfffMfd29c/86B/XUHDqh2Fd/cv7Py0M7rT//DTw4Ubd2z7ntHNn73bNFzxzf8/PCmZw9ufu4Bj8ObXjr68ob9P13/ytpd54pPvn3s8v+75nf61MOwOEGJC9msMLOGuUSitPztQ5RoTUXsPAR4yhpCZZGRRVIGAttIZU4WGYnHgpAoEYgilOB5XJ9CRkyKQJfB0mkC22wAclycQ5JCxxyYxfUwaZvCpzIq7CUqih3xl6iojMVdBnPRKfxbJMNLhoDi7UxWMqL8Y6fRJflNP/HxT8/NGCidU6dxEo4RUEr5jBT41uLV7zRSzl/VdeE3Nqv8MqvMXRB1mSiHzeTaumm7y+p0mCxOk8ltMWunJiquXnr2+9/55Ef/4wvPP7V23Y9/9pN1X/6fP/6rTz315JOb33yrVatJaqZj+invqX0H5wfrR5tPOcfecgy8qWs9o+99Tdv/6gMe+t433EM1upYKjbp+orFxsKbxj3/n9zvqWkVc1kSGYGQRH6AKgb8PgtHN2R7zM+y+e1sBhhY/aAaK6XQwlYDyLUD2oANAXTFKGY5hBUbG1FJhEy6EFhHyMWkbUlhgH+5SF2EHCcJIQLCViGQaSQme8SOUUKQ45njzcoLBaMlZ9vuxgyjLCLKEjh455XVH9FqHkfJSOs9KoaKaBafdFtFpHNoFm83ssRodTovj3ImTi047NTdhnBu/1dHw3z/5J9tf/mF7zeWob87nHkomqaOHD87PWqemHG+/0/ixj3/pJz/dNnrLYJq3njtYbBgpv9NYYurZpanfbOvcbeoqNnRvf8DD2LXL2HrI3n3e1Hlxov6t+a66312z5la7mvjkyaDqFPErXtofFKOL1/p9ne/uexJkQVmUQiFHKGzGaKQFDgROwhtkIRpHiJZwqkMpLSGGRSgeC2u87lGEghKHK4gS9w2BF7ikwMdEcI3AvlCKFA968X2S4YAhEbUqUpSHEDmsT1oaJuJ0QXJ7kS3ucXnlWFES0StHT69AiHrn5+xWS0gPVWTcdouH0hjMOv2pIwc9Vp3frm0oe+v/+2drumrfDphH076ZmduVZm2jSd918cKrBp1jdsY+PGI8cfpyccnJL/3tU07KsXPtD6Y6zms7d1m6tpib1ns6ihwdm+ydGx/42GRp3WTv2m3pOrrQemaq9e0/+ldr+ltVOJJEkCFLJiSyzZhaltbeXSvt/Ta6LDGXeYJgVpuVU2stNQCiqWRcpxvv6a0RxABCaVkSZBEJnKTIIs9HGNYrySFJiosCDoyVEBONDPc3TIzVz043up3j4AvB86AxAgmUR3JakeOynJRERoZ8m5zExJiEd3aiZ3aqe6C3htIOA2KVpayfeE97fCHKc5Dk7NgrZzyusEHvMlLeleK6YKC8c3N2o2nRYPA47Is2i2t+et6wMH/m6H6Paa6j7trv/tM1pql210LXTN9Nv77LR3XYNc0u49DebTt0M/aZKVdV1eDufRcoY/SFn+/cv+PQ+YM7RupPW3oPu7p3eNRbF9uKPa073K3FD3q0Fdnbnre0v2jpKjb1nuivPPyZ//Ivu5tuYhcAQYJE7uBD+8FCdMlvJyPnwfJ/r4NjWJZJen2GZvV1hvPwQhj73APAWSbp8xs9vgWG8xBjDJJRMhhHshhwLyDkCQcndZpuATsAKrzMp9lUPBAJ28NhSyzupOmwyKdw7kKaibvdthmEwove+YmxdhaypZE0v9mnA3wTPfNjx+gKvCwK6MTxcy5H0GTwGPSelSKLGiiPVuemDD7K4HY4Fi0mu2Z2zmHUv3HmaNC+8LH/+C9mB2tS7vHqt3bvfukJOTAWNXeFLX3m6Z7T+18xzfs0swGKSo7csU/NeGanvJ/8yKffOrZvoeud+aadnu5d7sZti80lPnWJR138oEfbFnvrT03qH1u6tthvnah89eVnvvKJ9vprYHcEfAJZEB8BiN5FtX/ZG4WH2kACQomh4QaEwgqYWAA80XDYaND09Tf0Dais9vE07WXoOJumITyGSdNxq4nqmZmqo9MGjvYB3mQk87zXZdRobms0gy73PM9DXCsSkkhJAQstB426wbHbjfMzvRjwWBFOCDwIvY8vRHFie+X0qfNOe8Bi8lE69wqCqMHoowxePeWyWb1GymzU6iJe56XzJ8ovnlr7gyei1hFhcbL+nd07fvq3nLM3olebRmu8mtGqizdHuudHBkzt7XPDd6xDo6burrmn/uG7z377H+yjVeNVWy1NW5212/xNxd7WInf7pgc9OtbZAKI/s3Zttw2eObHlG7vXPt1WX4ZkIVdsG0M0a0bA/Ns9GHm/Gd17fu5B3oKeRpSCPX2VybSVFxZxNgaATjjsmZ3rn9f0pmgbtrJgNayMoj73+HCTkeqi0/MIeRCKBTw2JImJSMhsnJ6c7JqcajeYRiJRhyIlsJUlmY7aUlFTPKQL+RfmprpTMRfQTEihh/lxsN8/vhDFpV/ls2cuOGyLNssipXOvFKOLgfJgiHp0eofJ6KC0lNNsji+6zx7e+fmPf5gabXHOtKVst8zDZe7JKtvINd+0anGhzTzW9fH/8KfVV5rbm+9Uq/p//lJxe+9EfePAD5/5yQ++8Xf6gStU+z6dal1AvSfQstPdVuTs2PTAxwZb63O29nW2rr3G7rMv/uOnL53e39FYr+BIl1zaSFxUkLiLZ5Si+Th5FCFK3OVvDdeEolpe9OO0Y6AvEoREMGwIRbVYeYtJoiLLDJcO+ztarhr07TZrl9HQjZQIktJZp6KkogQV5EcojPXAKSTGkJLw2KZv9VZRCz2Upm92shMCaCB5N4YosOGPNURxEWHp3NnX7Va/3RqgdG6zcXFFaHQNlEejdegpF2VwGiibXqP32m2LduPGZ5/52hc+EaBuu2fb/PPqlLkrQak9E6Wyqy+ibY2bxv7uv35SjIojgzMMh8rree305gAAIABJREFUmmOcODo594XP/c3R3T+f633N3LvX1rY51L5rUb3T0VZi7Sh+wMPWsd3assHdtdPefXy+5dUn/vLD6vIbPeouWQQKQBzEsf8aoQckt969gtUjB1FZEhgmhlAiEKIQiiKUkGUGq1tF7N4QRyhCznNcQmAZ8JgXWTbtjoQ0Xu8EQgGkJKD7UBeVuEBA/JqCYpKUgOwtCgcARsmwn0pETImICZtesLoop8YClBIPXoHou7L2qvw8tneJ1Pnb3opvQ21F6dVzb9gsPoctqNe6Vg5EvdOzNq3eazT5KMqu01Aeh8OsnXvqK39X9Nz3QuZJx0x3xDhou1Mb1rWmzB3emTr7ZFPQNPnh3/03lVerDJQjTos3VXUcQpWqxq9++X+8cWqTZfzieP2LiYn9zsYNjvotjra91vb91vZ91va9lo7dlo5dls6dls4SMz6g3bELn99t6dhjbd9jaSnx9Bx19J6drD/1N3/8/wy1qgbae0EOw266RKcpA1oJPu/jcPrIQRSra0gEGfFAIg9NNEz3OY+LIBCiBz7xLJdMp6EigyQpUA4Q6GEGS5C6VEYyJ2MelqVjQWx6ocEnkaOBxc2ZgTLsLtEIgycUhKvBjTDsZYFJJhQZSdj4ih2XsAxBnhFfl/1N8rXlr+TSpS8sv+KDOvNuBSNWCBX1m61poyU1r/XqDR6jyW4ymuwW83/+o/9weNeOhNfhWBi3zw4FDCOehe6Qscej75kb700nYxvWb/293/+TgZEphz9W3dg9PWf/d7/35zOjk1fP75zpPmbsL7L3rg31F9sbihyN+021++3NB/Q124O3XnF07dQ3bzB1bDZ1bNKr1xvbtjh7d9k6dxmbd2hqixwdh7x9p2dqdk/X739z3zf2rf/8SOdbg23NQgosfLDK8Cv2pIfUBfcTRd/3eNH3e6UpLM/4A740k1aQEkvEyKpPptLgMyEroqRImNOHeBgCVgnxSV6Cat9i0Iv9HKA4TRpQiJkPhUUSLUgMq/C0IvO0DIpdDFFJ4RKIT4IDI+R2Ad9+Ik6QhA6ZnSDz773hV4DoL3MS+rViuw3UosmSNlroBZ1fb/AaTE6D0WK12P/sIx+9+tYVq9ZoW6AcGq19bsqlHXdqblk0IyajYfjO/PXyFq0p8Jkvfu2JJ3/0p3/2hc9+7lu97ZrUIvPWie0LfWcWOtdrWn7s6S5yq4tdTfudjYf87UftLXs8Xfupxi3+of3RiaOeW7vnG16ydG4zthY5unb5Bw45O/aaW/YYW47oWl4JTLzzpT9fc1tdMtZz7tqF07Ce8BIglYSw7SBbTWsZYh5BKrrsGd/rBGFHWRF4V55h45gZzuXdBQqHSV0OElgbJCsikwTiyUOGbp4OikwMKCT4S2LHZlkCD0E5JUkpBkkJkRcgayGLxCg+YgoXQwovYU6aRNBjASJDfO993tyPZ9nley94lN6vcCrqM5njRnNco/fqKBdA1GCzWtx//anPf/vrP9z84s4D244fLTlZsrbk8I59ezZt2bVl++aNu0p2nV2/6fiW7ecOHrv885f2PfPDkjNn6vbuePvkvl88+80vG4YuGvqKdernbOrN9satvrbdjqZie9MOZ+tuV+d+bV2RtWNf95s/6Hvnx01nnwqOnLB27ja0bLW0bXN2Fdvad1FNB+09rw7e2PLEJ9fYpl+71Xa86vLryyDKw+oi62TZYljpEAVv3mDI0tZefXu4Y+xOTzLlEyAahpHlFIkRVxRGgUg3zDaDtZQRmaTMx7Vzt4dvNXW1lzus02B0UVhctZhYqjis+I1LckwAiimwUoKmfZqZ3qmRlpmx9tmJXqSkJcQJ4BsB7C92RMwmubhnlAsQ/bVI4q/hzWugvAZjyGgO6Q0end5uMDkpym4x+//X//jmzm2na8tutdVOd9bPNpQOtVQONZR1N1T2NdXfKS8fbmjUlldNVddPqxpmunqc9XW6tjpjW/XwqZ3brKOl4/UbFhpfcLaVpIdP+Dq2udu2mOrXW5qK7G17jM179I379n73I2M3t7y67m+mq7fOqDY5uvcEbx/wDZToGjaY1IcWb7/50y/+y4oz35np3T/YcnSgRQWMGV4VmXp8sDhXLURFmvY5nTMu1yxNu8bG2mjag53vA5IUVpQYQy8u+k2BRTPL4MJQEuReQYiJBq1T4x0IhQL++duDdemEA4ylCosUXuaSdMKXjNmZlJ0TfDxieMTLUFQqqp3tchiGmJgJq6ziEkoLgFJBhAtYvCPgsc/H5D2U8z0+ugfYH9DbFU5FPRSg1Gsye3SUzWh0UpDEKPztp9Z+/atrO5vNLTXm5mpLc5VZdWO+oWKhoWqhsVbf0+VTVZs6O4PXbk5XqrRvXRxtrLOXX5ptrZg4WbzTMFhq7j/iHtijrdrsai52tb4cGtjk6dqkr1urr9vq6j7u7nmt5KmPXil5cts//ulC3T5333Fb5+7ZmucNLS85urc7u452v/Hitz61Rtd9ZK7/wGjnyfbqayBS3Q1RXIQBn1w27yudigqKFEEoLPIet3O6r6cqtKgHk6kURlJY5AN+r352qm92eiDgM8hiFMlJhBg2FUByROS8s9PtOk2PkbqFlLDEhQFjYjrotc1ODoyPtlnNI4mULS3H40Iswfho2jU11mTV9Rvnu2/31yhKVFSSAgCYExEnQ+3GFA5Mz4x+hm8hmCTjfg8+8z9aNjEf1IkVDVEoFq5zGgwuq9Wr01sMBodO77RYYs/+bN9ffuI7LQ2Omgq7qsxZV+m5/o5eVW6rrbQ117tuXNVcfkdz9Yq+vMJUWW1WqezlN4wNZbZO1cKuF9aPN79JdR82tG6duv5yqPuAu+MlX88Lrq51mprn9Q1bff2nLa2ntn39I77BS9d3f/tOabGmYY++uZhq3uzoLrJ1bLOo9z/3hQ81nP2epuOAZuDgna5TbVVXAKK4dk6Oiq5miEp8UGDc2rn+hZlekfUCPoWQyCxCJSgxGvab5qcGFqZvRQM2wKdMHABZJMVEzify7lTCNDXRhlAM5FKZQUI67HfqF+7Mzww4rBOxuE1ErACx3WmEYvGgDqGAlLZPjbYiOS4paR6xPOIxRFngjYEO3w+i73Hyg8Liu/zuCoeoW691UJTDZvNqdWYMUZfZEt+w8fR//+yzb1+cvHnNXFHmuXHNcfmSubTUUV3lvvL2Qr3KU1Plb26MlpaZ1a2hinLb5YsLqmumtorZvS9vogbKLAPHTO3brE07E0OvBPo2GRt/aG9/ydD4sqW12N51eL5272vrv7jv+3+x+7sf739no7P3lLXjkKvn4OKtQ2Z18cWNn936v38/PHZB33Vgsr34tvpIT/1NTEXBHf1xgKiIUNqsG9XODEYXzVzSmwjZkBCDlIJ8HCm0zER8dsrvMCpsHAep0dgXl4+FnGPDbemE3WwYGRpoANcFyHvGIZFTeFpk4jwdZFKuRNKVFlMCjCjLs4HRgYaway7i0UwOtyEpKckMr/ACEkXItc0TPhkgmlMbZZCp4Bh78poFcO6ad4HKB3V6hUPUo9PYDXqn3e7XagkVdZks8a3bf/Hd7x06caK7rMxWWxe6ctVSVukpq3TVNwZUFY7KUltlqefKJVN9vb+i0lqjcter3PWlVnX51M4XXtb2Xlto2+3sK4ncesWl3hEc2K6v+9Fi/zZn1zZDS5G2cZuj75il+5i994xefdTRd9badWKirMjadsjZdWT06suf+dAaZ/tRS/tB68DR2a6dt9WH6q/9YhkVFXBw8upkdGWZS6bCHpdZS82NGxcmF50mMRVFMg96HEnIHiIOKoC4Aj6ZwgFArH7hztzUgN0yzdMBRUgoPINIHn+Sk0FhseMuTYscZO+WWaTQQafWPDekudMTcOplIS1J4GmZCVOACFNcHztrjc58APukpEgcPJIiIVniGVbicMEAYom9R1j9oKCZ/d2VDlGrOWCkvHqt3WRy63Q2PeU2mqObis6cO9/6kT97ukntu3pD/9al+eoG15uXp2ubnA11rg51pKrcde2qqazcpKqx1dY6ym7oVdd1narpPS+/rOu/TPXsNndutKu3Olu2e7t2ONq2WNQbrW1b7N077H27zD27DJ27Fpp3UO379K0H9OpDC3X7TS3HtLUH/+HDa/Sq3Xb1QWv7fn3H7tmu4mH1wY7qS4jFGka8m2P3XMhgBPv5/RbDSpdFFYFOSnRSYWkkcEjksVMRsYSSshXkFds8M+FpBFWiAuWJ04oA6l9sYsHef8QvSxCRxJHU27QoMMTpQeGQnEZ0CA6ZwSEKGZIJIwveEzKCAKMsFQX4Sri4BgcEFrR4WPsrCmDaweCG3P33m5UsXj6A/yscol6rCTKh6bVOs9Gr09kBopbIpqKTHd3mv/7sTw8ebbpZoW1QuyrqDBX1+p37q/7+f21f++Lli2/O1qhcVSpzRRVVVqarLNOrri901kzsWfuCbuBtqrfE3LXO3rrZ2bLN3LDF0rzN2VHs6dvtGdztGtxl7t2u7yyaa9lEde409xyari0xqI/bO8//7DP/5saOJ6nqPY6W/bb2fVT7zvmuHSPqA50AUQGBYQ+WCs4LK+JUgKsTokjiOERKZBCKlnvNuQoRZOZeJajDBlYSKE7BYOmUlbk0iO84VaDCygonIp5DEg0FpjC6ASuygCRGCHsQGwcAQyxuhoGFsc7ytxKL0xgDbcXpHQCZDBZTMS8Nzvp4B8XPKfM4ndkHgMR3/ckVDlGf1RQx6qEgKlT+1jkwRMObio5X1d658GbnX3z6B5W1mss3xhrajPWtup37bhw/1nT4QFPZTUqlsl29PlNepSktm69VGVQ3Zjtr7+xZ96xu4C2qd7u56yV760ZnyzZHy05n+z5n5x57Z4mhdbOmZe1M0/NTjc9ZB0tsg3ut/YfsfSesnWe+8V/WvL7ha/HhG4bq3W71fnvbXlPHroXO7WPqA11V74CGMQtR7GAEECVLZvnErHQqCthQREniRYHlBZZXROJYlefNl8MqaZCcfrKUCPvScS+dwBkYgEJiykYSegIV5QkV5SSJFQnJ4xEdQXQYXHwlFnGsyAksI9KMyDKiyIlAQkUJiUhkBDaZBh4b8EnzbJClfcm4U5FiOHachY/ILYUCRB+um5HPaooa9UG9xmMy+glETZbw5qLj1TVjzWrd339l43MvnK2um6+smb5ZOfKLN9pPHG9cv/bi6xdGKioMlSpte5dbVUPVVOtVN2Y6a8f2rPu5buDNfIg6W/e4Ow94evY7e/ZYOncYO7eaeraa+3fou7cNV71wu/xla8+xb35izTvbv+7qvkjVHjNW7/Ko9zrb95g7SrRd2++o9/dkGN0MFSUQlVYzRDMkjBAyvAfl0TSChKVXQCAIhOlYwGKYNhvGLcZx7HZPI4GGjQ0GTEYCowgJJENtC5wDSmHSUcRFLfPDPuOEYaJ/frRXZhMCR/M8L4iSDDQZErrgA/YIkUkjSJ7GJCJOq2nCaZu2msZjYQvojcUk/BbIpXgfKTC6D9OxwWcxRQz6oE6bB1FzeEvRieamubra+cYGw3/+0yf3769ubjHdLB09fqL2xefPfv+ZV16/MKyqMZdVztc3GUvL5jBEMRVd+5xu4GKW0d3ibNlua9lubS22thVb2ktMHSVUR4m+o0TXsVPTttM6cHSqvvhz/37Ntb1fs3aetnWc1dXsN6mKva17XO27LR0luq5t4wDRd/IZ3SxEBZCQ7rdjr3QqSvjLHKEkuhvAKP7LMKLAcuIDUKFIdDzgsMzbzJN2y/jEHXUsbFLEMA8SJq6qKNCJiCcSsHC0G6F4mouDWyAEmsanhpr8prGoc06Mu5AUx1ZQSGQGZVH5tJCOcImQmE5hLlpACitxYYtxfHaqy+uemZ3u9LpmecanCFEQgyHYIRv7tpy5+eDOrHBG12sxhw1UQKd1m0yE0fWYzZGiLSfbWnRVZdOlV6fVDY4P/fPPnnilpbJspqJsqrJs5p2LI81Nrtpa68VLI1dvTJSWzTc32lU35jOyaP+lrLpom7Nlh7e7xNK6RVO3br52va55h7Fzv7HrMNV5xHHr7LnNn//cH6wZKS8KT7zp6D1x68rL/v6T5pptPvUeT8dua0exvnvbhHp/n+rSckZXAtKBl+eyqV/xEMXqIF5UGF6iOYHmRUaEYBbwtcW51YDA5Q5cvBRUtam4jU5Zo2HN1ERzMm4A5wcO8iRhuufWa4YXZnsXfTMIBTk5ht0S4kgJjvZVGKbUbmrQbx3HMeUpBTGskAiH3Vbz3OxE/9hge9TvBTkWBF1a5sNG/fDsdEciRk1NtHjd0xLvR3IcSUkw8ADRvjc4cNkE/bZPrHyIhgyUX6d1EYhSeq/ZFCvafKa5XqsqW7h2cfrShanWOu9H/+iZF37yi9t90eryBVWVvr7OXl1trqjW1tQb6xtsDbU21XVNZw3R6F6levaZO4rs6hJnS7G/v9javp5qXmfu2OEeOGbvOzVbf6j/6vYvf2TNru//BdVxStd6xNB+YKJ6Q3DsONVYZKnd6lfv8bQ/7hDFFcERLym8KHOCxEL14QxEIdAldyhISMR92AoaSSYsFvPwwEBVNEKJgg/JEWxlSbud2sH+xp7uKrNpWJQXaSGSZMOyEkMokgxrxbQp6J4Y7q8WOb8MsiWrIE4Qk7Go2+1YMOknmEQIK3uBiiIlZTHemRpvCS3OzE2rg/45CDdHaVAIgw1GVESBhN/cB4iEXb/nFa6759Tyt/e52YOfErF4zDLy+dcuWs1eSuc06N1mI8mgm0uie08eXTdJKv2Bvxoor9kcoqhFrdZjNAa0Wo9eHzCbkkWbX21vMZdena66QTVWOa+9NV9Xbvvht8984W82vP3GWJ3KWlcDJQmrVMbySl15he7q5cnqG7MdteO71q5b6C/Tdp+gOveaWvdb1HsdXTutndvsPbu9t45ZOo+2v/783u998hsf+78GruygWk+bOk7qWw4s1G9dHDps7dxuad1irtvka9/l6tht7dyl69o5rj7UW3MR8WQBAF+LlRISVmOsTipKlizuZqaD771kJYaJIkQ7nFqHU5NIuu2OeZdby/GhRNIrg3sgLQgx/6LZ5dbF4k6EaKL8VRCfSPk0ulvJlDWZst0Z70SIFqV0io6LoJYVdfpZvWGaMkxBbm4wrsgyzzOJiFk/aTcNI+S1mweshqFFt0FiU8CGQw4vGiEBFMnZ38gw5DIC5OI+CSyikzndErHQkKw3OQ01iVclrD4Zh9wIYGDm3uU33gOy+LJUQjxz6nWbxW/QO3Uau9Meuht+LiP1KB4GyksZghpdwO6kF7SBmTn/3HzI6UQ7dlysqpytKp+vLNWW39CWXtPevKK9fmnh2jsL/+7f/uN3njp94fxkfZ23ptZRVqG/cXPm2tXhytKhntbRXZs3a0dbR9ten+48ax56g+o+be05G5m4ZGw//nrRl57+q3/y489+qHTfk67ecyb1UbP6kEW9z6reZVcX29Xb7eqt9tYt7s7t+oZ1lo4SQ9c+89CZWw1HOlSv4p06hUM7IHUAmM5xDoH76iVWOqP7Hmvtvh9lgtfMVs3QcPf07IjRPJ9IBRBiOYEkvGYlJR1L+EMRN81CWXFBlAWR4Iidnh9s664cGm3VGSd4KclwKZqFOFUFyaHIYpqNJOkAJ0RlmVYyXhCy32m83V892HPNoGlPRihIsS0IEosTgiJOkGkAnAypI4jKKUcjFRElo9kqqSS6TkZ0gsYqplyYas7Uex9pPNP/fGTmt+87PCTbBF41p09esFl8mnmzdsEyM6U36KEs9yN+UHq30Rxa0PmtjpTeEKGMcY0uqtEmnn/+lYaGhfo6TV2trkalU1Xpqyp0leX6ilJ9S6N3/cvXPv6xn//Vp15Yu/bS2++M1dbrGhpm62putTb2Ht6zd36sb26oYXbg5oj6NfXVnac2f/0HX/iDL3/0n5R8/6+HSvf6Rq5Ye85PVe+l1EcM6kOmln3mlj2Wll3Wlp3WlhKLeoerd4+maYu+fY+m86jp9sXbLa921l1A4iKWqsC6QLbV3Oa6fFoeU4gixLJcjOPjkpxGiBWlTKU2nJ+C5YVE9iNgRBmGZaB2OINQnBV8adbDiSFBSnB8SpRILmxJJgGlkCw/LUlpjmZEBlwDcRKWIEIekTEiyQcaJhmqHLNpGofIsTh5QxZNiqIQ6TSHJUFSOD6DYGDYc8Qzh8m7XCUInb1rmnO3uqdx10XZNwpiaEiiK4no5InzFrPHbHJHI4zbFXLYFx/9w24P2JxhDeU2WAI6g9/qiJusMa0+tHX76abmqabmmcam2YaGufr6+draudrauRrVXEOdtkNtaW+1vn1x8Kc/O/4Xf/n0x/7rN774xR898/T6n/zg5a9+6Ssv/uj7T/39Z/7np//4K//tD5/82/904cDzTZcPTnde1vRdn1C/MVp/blr9C6r3barnDUPPBVPPa+buc5bus5bu09buU9buk8aOI8auY66RNw0Db832vNNeea5VdVFMB0FfmBVacvgsUFEyJqIo0ZnwUcTnt3Mn8xqiwAssA7VnRJA8Y5ISEOUAgqIVNDZ7Ap8piawC/kOMgpK8SPKeAfvCp1IiHUEIIIqPILapYtspx2OIMiyEoRMqKUgiDZl+cWhrJOjGGc84hYPocySmmXgACWnsSbGkuM7Ocg5/WbDl/899mN/IvyDXxhdIIlr0Rw8eOFZWqjp75sLpU+f37zt69syFR/84c+bCufNvHT5+9sDRU7v3Hzt64vzpV98+/8aNbz393I6dJ7aXnNxefHrbjtNbt5/Zuv1s0bYzW7eeXr/20JaNxzZvPLFu7dGNG0/sKD6/pejMCy/se+bptV974rtPfOl/f/cbTz7//aeLnv/hwaLnzh8pOlz87KkD604fWPvKzmdP7H7+wtEN5w+9fHTb906W/OBU8ffOFD9ztvjps8XfOVf87VeLv/Xajm++ve+Z13d++9yO7xzZ9K2TJc9eOFrcUn0DkSryWUNDzuJQgGhGcE0koxwPHCPDpmgmmXURlBQkyoqQqc4KrkaSLEHFNDadYumoKJC0ZmGWc2F1bjoDUUWQBBqT3xRWRMF5RZRkTpIYBkEp8UWZMycjc4BVhVE4Dgc6IIQ4hg0JfFQS4zi1LynTlgSVrxhT+LDC46yFYoRLupEcRSjOpRYzSVpyoHrYDZKKHikosIhr0uGUzJmYjJxm/FFtYBsjnjmE0hwvZCv78KT0T74/C1EBkD0LUzEhj1nhcDZIloZ9VkzDlooEAet4wFFMEiJ0yocUXFtIDMusH4lBpERBwlTCSAkhOZA5JD8SvXAIizhfBzi08PHU3V6iGb1DRsZZNqGPG6OLFEUWQRsDk5PfEEVBFAVJEpVM/n5gOiVR4NLYzQCxoYC5p6vi1oBqoK/KbBxFUgy4VpEF3Sz28uPpAEIpQYxC4l+yWEQx4DZP32kZ6L6qn29Nx4z4K6LCk0xKHNYhpxBKQSwrSsChxCJBk1k/NjLQKLM+hCJ2w+hIf+2t7io7NYy3gEyqs2VT+TBPgOkF/wmCGIvFc28f5m+8D/dSQP8GagAJybwCAr6gyEQk4GWJl2VBgT2YbMNEz4YUkedogecJQgTiPCujeExJJjB4JLCX80lOTLGgBUQCJzOczGDDHqlAm6mOi5cBrkmvMDDRINSkwcAmJlEipCRimWpgJF3dPQJKjjFaNiyPHURxckCwRqbTdCIBuQLJH8ty9yxEcI7PyPISUlg67p6ZgEQNiuCFLKEiVBaXWeIqxMps1EJN8swix4dlmRY5XmJFIZ1edJl8zkkkWLWzLYvuaYmJIllWeJlN06lUKJX2s3RAYEKKEMXwS8hcIODRmXUj47dbEIpwCZtxvh+JfjZm1k12cnE3tvIuY2/vyyFlevZLudvsECz9V0AexWtWhhWef4dHuq0ghYPIJJEcEgh8YpJNcTJPYp1wmSNS7AheMcdEQIVzyOHOCTyQTEXJVEQSMx6jMAyQVjIrBcW5dJJnRJyvOZ5KirIkSpIkyZIky5IsixKoDAUxFQoillsq1ZfTIWSWFl5j+YO6NAuZ1uMI0WQynT8OHESbIYbhJGnZSiexCAwtMzEh7a+vfvPO7Ybb/apYwACIUhgpHZfSccQlFp2GzpZKi2EyHvfAbpqBt2zRzwwPqCxU9+SoKh7Swc7K84SK+v32wcG24VudVuMclIoCx4kUEiIKF0RiWF13hfBOYfe8aX5gaqjRMNMDvooguNwPNfldgnbuIuJnmK+SWNbNvO9iJmJp+fA8i5CcTidlWXz0D5zvEfZVQSbRSWDP4CQOcrNKLCexvMwKCisiDvvEQghYOk1ytXIiTwtsJiJflgClRMeeG29JRpyEUzMrUkoSSKIqyDqHcZvzDcoJlnfNgIgEFvy+yaYP7tu5MSYTlZkyQkzz5gOt+CSdd3Xm4b9RkMzywDeJaSHtBzEDhaIB7VBvLVJSECYucnwiqjAJv8PQ115rMUxFIk6AKMlkLEnzk7ethiGBNjjM/fr5HqgoI8sCzSuiZLdTev2UQTvrc9pgu5dYSP+psHwywCcXxwZakZJEbMBrmUZKNOxaGO2tQ0pK5HiQmkgqb2JNy3abZVnwb5REloWkrILAyaA2BCVwPIGrM2IZSBBIcqvs1/LhDOeWmIe8dZRbUI944z2enjiZQSI47NYCpi5MRXMWLBK4tLS5Eezk8ivjxHMyST+Xfb1LqITrcxsjbuBAswwYyaf3XACPC3/E1k1Qf6/D2eNIRcmoPNBrlhgikfY5dZRmyEzdthiGtXMDSE5yyTDiWZlJI0VgE0Hd7Gg67mUgj1mWivI8NT/uMI8kI3NGbQf4MMg0kmWJFSVeiEZ9qVQw6PMEPV6RpmWWwV74gsIlxXRkZmwA8bGozzwz0hl26yIenWF6IBVyyQIU/4RU+3fjE+YZmFJZVgRBZBESWS4lySzLJSBs+YMlAAAMS0lEQVQePaM0Bi1WmiYyVh4tzS2szKA84jh8j8fDpItoSpewhk8uvQXg5I7sadzz3DiQBnwGRURECE0S8cYoYvYYMr/iOxCSmbeU7r4DcMvZUOUcmc17GrK8SIwyCVq8Tz3bAkTzxnd5E/QPJGG4kIp5reZJIzXi92rolEcWEmwymsWKiBQ+EgBvJAniY1i8UyMkin6n0WUdoxbaPPahVNQACl7sPa+IkiimMJgVIKo89qOGSAdZYtMym9RMjYKFRkkHXZRFO2bRjsb9RiQRH/3sulpCmcJxDMfTssIL2GkJgT2J6Jw5GUrl4YByDFRRYpVsLfRMj/MXFpx6Dww84h/ljUx+p5YG6t45zl2Vh5zsTQDJQHJFrM/lIdsjh9Ob32OdJgru+wsgJLqRqKaWngKgnc2tDjY2wKcCrmzsco19AaL3ztld7xXQ18oQbSths0qS4/ySFMKaWE4WMbWESQZGhU7hHILEXpojv5DCNwh+C4IVjC58AsoTZyQOnIqBMEN4pciCIHEsgtviTEhCUmLDWOiNgVwKmdNigB+yrJYelDwe2YzJfBMjbRo7MNI0G6GZiCCmaCbG8SleoDEhXVowd61OuG1u3a64xoM9e3boyCzdj74RnpW4fglYMuVxqkfMi2bKgma5XXgrZXz4MiEbWYsnBmLWN4z8KskpJmUcuUl6Z4xSBfy9ibSafT78/zGE6K+07GDKFQnxHKFCaVGKCGIE+y0IS8pVGEqZB68DLhJzp1IhcBrkJCYeV7h41nXBDQ0xhRUREBpIvIsEHmpP4EOSoaY40eCzPBNmkj6MzGgqZknFzFDcDayjdxldSNkKUHvQEV5MCBA0R+yrKQUlJSWeZgIS1FNl8BbDYVcNsqfnaSbyh+Su5bHK35BaQARCRHMNHc6MBsZShpCCbIHFf6yQzQCSwJIANaeozW9gtxbAIpJyWj6cywqWVEaqJdcD400Cs5ZHjD5uEM1Qtwfm5TITJstkNhlOiHDgw8AqCHTsGekfr2Sse4BkK7JMA38ELKGMFCYa0MSC08nInMy5sK0M6j4BhmVweBAkVkGyJPOCyMjgosQiRMfiLpr2KXIIoUgkpAsFFpDiQ4pHlgJYqoTfk2VJkgRR4gSRFoBnZnEmUVALyyjO8IuiEg7HbIIUBTO+EI3EPPjmRCexRDnyFmV2deLurNiXe6Y4j1lY1iXisU12XxGviczVS2pZ+A7hUiDLHLlD7lNCM+F0/pFjg8H+inEM+zze7DESQdLBcYjQyH6SXZHLH/fxhGj+gL53G29uOIUF1hBwWGAA0Q72PCypyDLMgyTDvImgmGEkKQ3lwzFE2URgfLhhdqLeaRnw2Mdz6iKkIFGEcNNQzIdTS3GcmBAg1CYtylGTZaK7tzoQ1CIU0Ol7JiYaNNq2ick6UQKYyYBOURA4XqBZLsmwcZqJIMSkmUCa8XNi0GiZGJ/qml0YaFLfSDG+WMI9tzDSN9AajfskmcaQxvUgYd3gv3wquqLb0Juc5TJXYpdwDbldKddDAFauiICAWdUsYvD/rDsBkUXIXbI0Fm9necOHtUegRsqpi7NBy7CNwx/5WRKRQSoNkSfCvwKnMdCzU5K5NXr8jC456eO9kZn7FBgUCUzQwIdgvxROQgwv0pg3zQw7L8i8AEZVlgOnfDBugyJQYRORgNuomelEitthGtDOdol0CLKucHABS8doOjQxdYvlowpKC2KMBwcG8CL0+XRazWBgUSOKLqv1FscaWVY/NHSD42yKnJJEnKmJS7NsgmGi6XQoBcE6aZrxS3IYoVgoYnS6Z5Jp2/RsdzBiodmA2To7PNrNgSjLYVpNSEJ2PeQW7UpvwMK+L0QJvoiuK9dJ2EVz6Y9FLLfcBdHshUQFTACVmfIlBOUwC1fhyGQJs6wEqxJZJ3kQzRJlssSyT0Qgmid7LP3A40ZFc7tZdvhzI3z/xtJI4W2QjCh5zf8o18aSqywy0ZDCxJGSdpone9tvjAxUamfa7MbbEuODNNwy6IQWnXa7Udvf1aCfH6bB4SGNo72T4DKGUprpQad5EuRPxRtenBoZKu1sex0hH5cOEE2DxKeM+tn5mZHZqSGbZZZj/JIQwMWRwwiFYlGDXt9/e7helIMyirN86NbtdlyZhsH6w7x6buTZc+OR68pKbdzD6GZJ4dL8LnUst2HnLlr67O7Wgw3PEgec1RdlN8Hc3XI3ym9kSeyyq+FrjyFEc6P1PjRgzonnGA+aIT7is884TaMILc5Ptpq1gxzUd0pidpfnotFU0D8z2uMyTYupRYCuQiMhhURIy2DWjKdCNoSidMzIxPV0fEE/37zomZC5CHZrY7hUxKCZmpu6PTHao527nYw5MD4jsuhzOyeN1OCib0YSvby4KMgRmg3cHukQpJgMGwGm80BtllQkMBZk0bwPo1K45W8yAgWI/iajt+y7mW1ZRhytsHGZCbks05rpHr9rxqwfcprH+ZQHSQkILpMFcN3kGLdFkwjakYCTlckM4pIQcaawUyO9Ya+RT3kWprsWptu9zlHtnNqo7ZPYCHwX8qrwIhNX+KQCwegpnMcwgVCMTjoMuqGJO2qdps/rmWU5PyeE08zi5PQgJ0QlJSVKKczrFiC6bPoeyRMFiD7UaSEQ5UUhlcS2TQZJ8UWP1uucS0atyagN8gaCQwI4FSpQsYnnkiGMTxaiQyUG8Ti7p8IlQm4coZZMxWwhvyYR1ccjWmx3obGvCwe0FMynxCuFhovFmMgFmJQ7FjYvejUu+7TVMsELIUGKckLEZJkTpISCGKz+JYzuMir6UAejcLOHMgIFiD6UYcy7SVYBgK3WkOoaa4Agx6cEEWc0JqGQGEVgBAiGAI8fDr8KSOYy1V/gJK+AexCJQY0jFGVZFw4l50ErIQoSxyCRk7g0z8TpZCijmwQuOo7kWCa0DSUViHFLyygVjrpl7FaBTaP32gLzOlBoPlojUIDow56PrBpAlkSGTqRSIZxwDFRBEuiBCPUDDyFIcgL6AeJCndMh5xqgmZSklAIoJUBNKFDBDefjJurDjB0cW88zUCdGBOK9AN5F+ICk2wL5dXAMZLJ+o/fVID7sASnc7zcbgQJEf7PxW/ZtBZI15CzSEPCiIF5CjIxYXkpDYgcw3gA2pawnH7k8pwMkDVEWJEUQZfhWmo1wYlzBNBCsQIRQixjnEIuMMyMoUOJJZFMK+OhiFyWFFaG0FPErAmdDYm5huRSGaM5OuKwPhROP0ggUIPqQZyMfe5JCIiokGQf643Se4KZEXEoEnAYQZxiUROy+lCXAAGBe5DkBHI+wy4QgKix24M4UAgGUYkFSBBMrUcYS508IzJB4RuRpnA5CkCRakjNu9NjDXkylY/jLBRL6kKf+fbpdAaIPeWDzYZZt55vLsoDK2jiy19z3fO6LueCpjGn9vldjP9AcMSakNhcLlfNKu8eI/5C7X7jdQx+BAkQf8pC+J+TeBVkPBNfMdx/0FtAtol8mBDcn4i6ps/AFD7n7hds99BEoQPQhD+nDgGiOeL5LjP6v8Mjv9ji/wi0Kl36wI1CA6EMe/3fDxLueJ5zpXYSU+ISCxLr0rSwD+5Aft3C7R34EChB9H6ZoCVh3Ie+X86jwLKBvyh44jU3ubkv6ndyp/MZv0pGHdZ/f5BkK373/CBQgev9x+fXP5q/2XPseATB3PictZs4QfOZUO9lIYPJ18gpPlotiyv/gvj7YD9iP/Od4wK8ULvstjUABog97oPMFSQK8e3AEJ7Nsaw4amVAL4sYArkXgbwQZN7JWUKL0AbJKgstzlDbXyNwCX3B3p3I7wt2n897lnuM3wXne/QrNhzcCBYg+vLEkd1qC33sYSJZBNIOiXHx/1kEP7pYNyM9Q0ftClHz2Llgkp9+ro7kvFiD6XsP0gXxWgOgHMux5P3oXfsibfLzhK+9FUP77/HbebQvN1TICBYiulpks9GOVjkABoqt0YgvdWi0jUIDoapnJQj9W6QgUILpKJ7bQrdUyAgWIrpaZLPRjlY5AAaKrdGIL3VotI1CA6GqZyUI/VukIFCC6Sie20K3VMgIFiK6WmSz0Y5WOQAGiq3RiC91aLSNQgOhqmclCP1bpCBQgukonttCt1TICBYiulpks9GOVjkABoqt0YgvdWi0jUIDoapnJQj9W6QgUILpKJ7bQrdUyAgWIrpaZLPRjlY5AAaKrdGIL3VotI/B/ALv0Pc/bDjcZAAAAAElFTkSuQmCC;" parent="12" vertex="1">
                    <mxGeometry x="347" y="127" width="310" height="163" as="geometry"/>
                </mxCell>
                <mxCell id="14" value="&lt;div style=&quot;&quot;&gt;&lt;font color=&quot;#000000&quot;&gt;&lt;span style=&quot;font-size: 21px;&quot;&gt;Fibonacci Sequence, in JS&lt;/span&gt;&lt;/font&gt;&lt;/div&gt;&lt;div&gt;&lt;font style=&quot;font-size: 21px; color: rgb(0, 0, 0);&quot;&gt;&lt;br&gt;&lt;/font&gt;&lt;/div&gt;&lt;div style=&quot;&quot;&gt;&lt;span style=&quot;font-size: 21px;&quot;&gt;How many values would you like to be calculated?&lt;/span&gt;&lt;/div&gt;&lt;div style=&quot;&quot;&gt;&lt;br&gt;&lt;/div&gt;&lt;div style=&quot;&quot;&gt;&lt;br&gt;&lt;/div&gt;&lt;div style=&quot;&quot;&gt;&lt;font style=&quot;font-size: 21px; color: rgb(0, 0, 0);&quot;&gt;&lt;br&gt;&lt;/font&gt;&lt;/div&gt;&lt;div style=&quot;&quot;&gt;&lt;font style=&quot;font-size: 21px; color: rgb(0, 0, 0);&quot;&gt;&lt;br&gt;&lt;/font&gt;&lt;/div&gt;&lt;div style=&quot;&quot;&gt;&lt;font style=&quot;font-size: 21px; color: rgb(0, 0, 0);&quot;&gt;&lt;br&gt;&lt;/font&gt;&lt;/div&gt;&lt;div style=&quot;&quot;&gt;&lt;font style=&quot;font-size: 21px; color: rgb(0, 0, 0);&quot;&gt;&lt;br&gt;&lt;/font&gt;&lt;/div&gt;&lt;div style=&quot;&quot;&gt;&lt;font style=&quot;font-size: 21px; color: rgb(0, 0, 0);&quot;&gt;&lt;br&gt;&lt;/font&gt;&lt;/div&gt;&lt;div style=&quot;&quot;&gt;&lt;font style=&quot;font-size: 21px; color: rgb(0, 0, 0);&quot;&gt;&lt;br&gt;&lt;/font&gt;&lt;/div&gt;&lt;div style=&quot;&quot;&gt;&lt;font style=&quot;font-size: 21px; color: rgb(0, 0, 0);&quot;&gt;The sequence is: ____&lt;/font&gt;&lt;/div&gt;" style="text;strokeColor=none;align=left;fillColor=none;html=1;verticalAlign=middle;whiteSpace=wrap;rounded=0;" parent="1" vertex="1">
                    <mxGeometry x="95" y="100" width="302" height="390" as="geometry"/>
                </mxCell>
                <mxCell id="15" value="Generate" style="rounded=1;whiteSpace=wrap;html=1;fontSize=18;" parent="1" vertex="1">
                    <mxGeometry x="107" y="370" width="125" height="50" as="geometry"/>
                </mxCell>
                <mxCell id="19" value="Generate" style="rounded=1;whiteSpace=wrap;html=1;fontSize=18;" parent="1" vertex="1">
                    <mxGeometry x="107" y="370" width="125" height="50" as="geometry"/>
                </mxCell>
                <mxCell id="22" value="" style="rounded=1;whiteSpace=wrap;html=1;" parent="1" vertex="1">
                    <mxGeometry x="107" y="320" width="180" height="20" as="geometry"/>
                </mxCell>
            </root>
        </mxGraphModel>
    </diagram>
</mxfile>